<?xml version="1.0" standalone="no"?>
<!DOCTYPE svg PUBLIC "-//W3C//DTD SVG 20010904//EN"
 "http://www.w3.org/TR/2001/REC-SVG-20010904/DTD/svg10.dtd">
<svg version="1.0" xmlns="http://www.w3.org/2000/svg"
 width="2176.000000pt" height="2176.000000pt" viewBox="0 0 2176.000000 2176.000000"
 preserveAspectRatio="xMidYMid meet">
<metadata>
Created by potrace 1.14, written by Peter Selinger 2001-2017
</metadata>
<g transform="translate(0.000000,2176.000000) scale(0.100000,-0.100000)"
fill="#000000" stroke="none">
<path d="M885 21728 c4 -30 13 -104 30 -243 3 -27 8 -63 10 -80 5 -36 22 -169
30 -244 4 -30 8 -61 10 -70 1 -9 6 -43 9 -76 4 -33 9 -73 12 -90 2 -16 6 -51
9 -77 3 -26 7 -62 9 -80 3 -18 8 -60 12 -93 3 -33 8 -69 9 -80 2 -11 6 -42 9
-70 3 -27 8 -61 11 -75 2 -14 6 -50 10 -80 6 -59 12 -114 20 -170 3 -19 7 -55
10 -80 8 -62 13 -106 19 -149 3 -20 8 -61 12 -91 3 -30 7 -68 9 -85 6 -47 15
-115 20 -144 2 -14 6 -48 9 -76 5 -47 14 -124 21 -170 1 -11 6 -49 10 -85 4
-36 9 -76 11 -90 2 -14 6 -45 9 -70 9 -73 15 -124 30 -245 4 -27 9 -68 11 -90
2 -22 7 -58 10 -80 4 -22 7 -51 9 -65 5 -53 16 -139 20 -158 2 -12 7 -52 10
-89 4 -37 9 -77 11 -88 2 -11 6 -44 10 -73 3 -29 7 -62 9 -72 2 -10 6 -45 10
-77 3 -32 8 -69 10 -83 2 -14 6 -50 10 -81 3 -31 7 -66 10 -77 2 -11 6 -48 10
-81 3 -33 7 -68 9 -78 2 -10 7 -47 10 -83 4 -36 9 -76 11 -90 3 -14 7 -45 10
-70 10 -88 16 -135 20 -165 2 -16 7 -52 10 -80 3 -27 8 -63 10 -80 2 -16 7
-57 11 -90 3 -33 8 -67 9 -75 2 -9 6 -43 10 -75 3 -33 8 -74 10 -92 4 -26 26
-202 60 -473 9 -75 35 -277 40 -315 3 -22 14 -114 25 -205 11 -91 22 -181 25
-200 4 -30 20 -159 40 -325 3 -22 7 -56 10 -75 2 -19 7 -55 10 -80 3 -25 7
-61 10 -80 3 -19 7 -53 9 -75 3 -22 10 -76 15 -120 6 -44 13 -102 16 -130 3
-27 8 -61 10 -75 2 -14 9 -68 15 -120 12 -103 16 -141 24 -198 3 -20 8 -62 11
-92 3 -30 7 -66 10 -80 2 -14 7 -47 10 -75 3 -27 7 -59 9 -70 2 -12 7 -52 10
-90 4 -39 9 -77 11 -85 2 -8 6 -40 10 -70 3 -30 7 -66 10 -80 2 -14 6 -50 9
-80 4 -30 8 -64 10 -75 2 -12 7 -52 11 -90 3 -38 8 -72 10 -75 1 -3 6 -36 10
-75 6 -70 8 -81 19 -165 3 -25 8 -67 11 -95 3 -27 8 -61 10 -75 2 -14 7 -50
10 -80 3 -30 8 -66 10 -80 2 -14 7 -47 10 -75 3 -27 8 -66 10 -85 3 -19 7 -59
11 -88 3 -29 7 -61 9 -70 1 -9 6 -46 10 -82 4 -36 9 -73 10 -82 2 -9 6 -41 10
-70 3 -29 7 -69 10 -88 2 -19 7 -57 11 -85 3 -27 8 -61 9 -75 2 -14 7 -54 10
-90 4 -35 9 -73 11 -83 2 -11 6 -45 9 -76 4 -31 8 -67 11 -81 2 -14 6 -50 9
-80 3 -30 8 -64 10 -75 2 -11 7 -47 10 -80 3 -33 8 -71 11 -85 2 -14 7 -47 9
-75 3 -27 8 -68 11 -90 12 -87 17 -125 39 -310 3 -27 8 -66 11 -85 10 -76 14
-107 19 -150 4 -38 18 -153 50 -415 3 -22 7 -51 9 -65 4 -21 28 -216 42 -335
3 -30 20 -169 29 -235 3 -19 7 -53 9 -75 3 -22 21 -166 40 -320 20 -154 38
-300 41 -325 3 -25 9 -79 15 -120 5 -41 11 -95 15 -120 3 -25 7 -56 9 -70 2
-14 7 -52 11 -85 4 -33 8 -73 10 -90 6 -44 23 -182 30 -240 3 -27 7 -61 10
-75 2 -14 7 -50 10 -81 3 -31 7 -65 9 -75 3 -18 12 -89 22 -184 4 -40 10 -80
19 -145 2 -11 6 -47 10 -80 3 -33 8 -67 10 -75 2 -8 7 -46 10 -84 3 -38 8 -72
9 -75 2 -3 7 -42 11 -86 4 -44 8 -82 10 -85 2 -3 6 -32 9 -65 3 -33 8 -69 10
-80 2 -12 7 -51 10 -87 4 -37 8 -75 10 -85 2 -10 7 -43 10 -73 4 -30 9 -71 11
-90 3 -19 7 -55 10 -80 3 -25 7 -62 10 -82 3 -21 7 -55 10 -75 3 -21 7 -60 10
-88 3 -27 8 -61 10 -75 2 -14 9 -65 15 -115 6 -49 12 -106 15 -125 10 -77 23
-183 30 -240 2 -14 6 -52 9 -85 4 -33 8 -69 11 -80 2 -11 7 -47 10 -80 4 -33
8 -71 11 -85 2 -14 6 -50 9 -80 3 -30 8 -66 10 -80 3 -14 7 -47 10 -75 3 -27
8 -63 10 -80 2 -16 7 -52 10 -80 17 -140 26 -213 30 -243 3 -18 7 -54 10 -80
6 -52 23 -191 30 -237 2 -16 6 -50 9 -75 3 -25 13 -101 22 -170 15 -122 18
-147 29 -240 7 -59 16 -129 20 -160 2 -14 7 -45 10 -70 24 -204 35 -291 40
-325 3 -22 12 -94 20 -160 8 -66 17 -138 20 -160 15 -112 50 -397 65 -528 6
-53 13 -107 15 -120 2 -12 9 -65 15 -117 6 -52 13 -108 15 -125 2 -16 8 -66
14 -110 6 -44 13 -102 16 -130 3 -27 8 -63 10 -80 2 -16 7 -52 10 -80 3 -27 8
-61 10 -75 3 -14 7 -52 10 -85 3 -33 8 -71 10 -85 6 -37 14 -99 20 -155 2 -27
7 -61 9 -75 3 -14 8 -50 11 -80 3 -30 7 -66 9 -80 3 -14 7 -50 10 -80 4 -30 8
-66 10 -80 3 -14 7 -52 11 -85 3 -33 8 -67 10 -75 2 -8 6 -46 10 -85 3 -38 8
-77 10 -85 2 -8 6 -40 10 -70 3 -30 7 -66 10 -80 2 -14 7 -50 10 -80 3 -30 7
-68 10 -85 2 -16 7 -56 10 -88 4 -32 8 -66 10 -75 1 -9 6 -46 10 -82 5 -36 9
-74 11 -85 1 -11 3 -28 3 -37 1 -17 147 -18 2921 -18 2774 0 2920 1 2921 18 1
19 2 30 25 172 12 80 33 211 59 390 3 19 10 64 16 100 5 36 12 79 14 95 4 35
34 228 40 265 2 14 11 72 20 130 8 58 17 114 19 125 2 11 7 40 10 65 3 25 8
54 10 65 2 11 7 45 11 75 4 30 9 62 10 70 3 16 14 87 20 130 7 45 76 503 86
565 5 33 14 92 19 132 6 39 13 80 15 91 2 11 7 42 11 69 3 26 8 56 10 67 2 10
6 44 10 75 3 31 8 59 10 62 1 3 6 28 9 55 4 27 13 90 20 139 8 50 17 110 20
135 3 25 8 52 10 60 2 8 7 38 10 65 9 61 10 72 24 155 5 36 12 83 16 105 3 22
7 54 10 70 3 17 7 46 10 65 2 19 6 44 9 55 2 11 7 47 12 80 4 33 8 62 9 65 0
3 5 32 10 65 5 33 9 62 10 65 1 3 5 30 9 60 4 30 14 91 21 135 8 44 17 107 20
140 4 33 9 62 10 65 2 3 6 29 10 59 4 30 8 62 10 72 2 9 6 39 10 66 4 26 15
100 25 163 11 63 22 135 24 160 3 25 8 56 11 70 2 13 7 42 10 65 3 22 12 81
20 130 8 50 17 110 20 135 3 25 8 52 10 60 2 8 6 38 10 65 8 69 12 92 39 265
8 52 18 115 21 140 3 25 8 52 10 60 2 8 7 35 10 60 2 25 7 54 9 65 2 11 7 45
11 75 4 30 9 64 11 75 2 11 6 36 8 55 3 19 8 49 10 65 14 86 51 336 60 400 11
78 15 111 21 160 4 28 8 57 10 65 2 8 7 35 10 60 5 44 13 99 20 150 6 36 25
179 30 225 3 22 8 58 11 80 3 22 7 56 10 75 3 19 7 46 9 60 2 14 7 52 10 85 4
33 8 72 11 86 4 28 10 78 19 152 3 23 7 58 10 77 2 19 7 59 11 89 3 30 7 61 9
70 1 9 6 45 10 81 4 36 8 72 10 80 1 8 6 47 10 85 4 39 9 84 11 100 8 72 14
124 19 175 3 30 8 71 10 90 2 19 7 60 10 90 3 30 8 71 10 90 2 19 7 64 10 100
4 36 8 79 10 95 2 17 6 66 10 110 4 44 8 91 10 105 2 14 6 59 10 100 3 41 8
91 10 110 3 19 7 71 10 115 4 44 8 103 11 130 10 120 21 252 29 375 4 47 8 86
9 87 5 6 86 6 92 1 6 -6 9 -62 19 -293 4 -82 8 -166 10 -185 2 -19 7 -82 10
-140 3 -58 8 -121 10 -140 2 -19 7 -69 10 -110 10 -124 16 -193 20 -230 2 -19
7 -64 10 -100 8 -92 22 -220 30 -270 2 -14 6 -56 10 -95 4 -38 8 -77 10 -85 2
-9 6 -45 10 -80 7 -71 8 -77 24 -197 7 -46 14 -95 15 -110 6 -40 36 -263 41
-293 2 -14 7 -50 10 -80 4 -30 8 -62 10 -70 1 -8 6 -42 10 -75 4 -32 9 -68 11
-79 4 -22 14 -93 29 -216 3 -25 8 -52 10 -60 2 -8 6 -35 9 -60 8 -67 38 -279
56 -390 5 -30 11 -75 14 -100 4 -25 8 -56 11 -70 3 -14 7 -45 10 -70 5 -41 18
-125 29 -190 3 -14 12 -75 21 -136 8 -60 17 -121 19 -135 3 -13 9 -58 16 -99
6 -41 15 -97 20 -125 5 -27 12 -68 15 -89 3 -21 7 -48 10 -60 2 -12 7 -38 10
-59 10 -69 16 -111 46 -292 17 -99 32 -191 34 -205 2 -14 7 -42 10 -64 4 -21
9 -48 11 -60 2 -11 6 -41 9 -66 3 -25 8 -56 11 -70 8 -35 10 -44 30 -177 5
-37 40 -248 50 -308 3 -16 7 -41 9 -55 5 -37 34 -211 40 -240 2 -13 7 -42 10
-65 6 -38 10 -67 20 -127 3 -16 7 -40 10 -55 2 -16 6 -41 9 -58 3 -16 8 -52
12 -80 3 -27 8 -52 9 -55 2 -3 6 -26 10 -50 3 -25 10 -70 15 -100 5 -30 12
-68 14 -85 3 -16 12 -70 20 -120 17 -101 22 -132 36 -225 5 -36 12 -76 15 -90
3 -14 7 -38 9 -55 4 -27 30 -184 40 -245 3 -14 17 -99 31 -190 15 -91 29 -172
30 -180 2 -8 7 -40 11 -70 4 -30 9 -57 9 -60 1 -3 5 -27 10 -55 4 -27 9 -57
11 -67 1 -9 6 -38 10 -65 7 -49 10 -69 18 -113 3 -14 8 -43 11 -65 3 -22 14
-92 25 -155 11 -63 22 -133 25 -155 3 -22 10 -62 15 -90 6 -27 12 -66 14 -85
6 -40 16 -102 22 -134 3 -17 21 -127 39 -241 1 -11 19 -121 40 -245 20 -124
38 -234 40 -245 2 -11 6 -38 10 -60 3 -22 8 -51 10 -65 4 -26 35 -214 40 -240
1 -8 6 -40 11 -70 4 -30 9 -58 10 -62 1 -5 2 -17 3 -28 1 -20 6 -20 2988 -18
2964 3 2986 3 2989 23 2 11 6 49 10 85 3 36 7 76 9 90 1 14 6 54 9 90 4 36 9
72 11 80 2 8 6 44 10 80 3 36 7 75 9 87 3 12 7 54 11 95 3 40 8 84 10 98 5 24
7 46 20 165 3 28 10 84 15 125 5 41 12 98 15 125 3 28 8 70 10 95 8 67 13 105
25 215 6 55 15 132 20 170 5 39 12 97 15 130 3 33 7 71 10 85 2 14 7 54 10 90
4 36 8 76 10 90 1 14 6 50 10 80 3 30 8 71 11 90 2 19 7 58 9 85 5 56 14 137
20 175 2 14 6 54 10 90 4 36 8 76 10 90 3 23 7 53 19 165 15 128 19 162 21
177 2 9 7 49 10 89 4 40 8 80 10 88 3 16 16 124 20 171 1 14 8 68 14 120 6 52
14 115 16 140 2 25 7 61 10 80 5 34 8 67 20 185 3 33 8 73 11 89 3 15 7 50 9
76 2 26 11 105 20 176 9 71 18 149 20 174 3 25 7 59 9 75 2 17 7 59 11 95 3
36 8 76 10 90 3 22 9 72 20 165 2 17 6 59 10 95 3 36 8 76 10 90 2 14 6 48 9
75 3 28 13 106 21 175 13 119 17 146 30 265 12 115 24 214 30 255 2 14 7 52
10 85 4 33 8 76 11 95 4 35 8 73 19 180 3 30 8 66 10 80 2 14 9 70 15 125 6
55 13 118 16 140 3 22 7 60 10 85 2 25 6 59 9 75 2 17 7 62 10 100 4 39 8 77
10 85 2 8 7 47 11 85 3 39 8 77 9 85 1 8 6 44 10 80 3 36 8 76 10 90 2 14 7
54 10 90 3 36 8 76 10 90 5 39 15 121 20 165 2 22 8 78 14 125 6 47 13 112 16
145 3 33 8 67 10 75 2 8 7 48 10 89 4 41 9 83 11 94 2 10 8 64 14 120 12 114
18 165 24 217 3 19 7 58 11 85 3 28 7 66 9 85 3 19 7 62 11 95 3 33 12 112 20
175 8 63 17 140 20 170 13 118 16 148 25 220 5 41 12 100 15 130 6 60 13 116
20 170 3 19 7 55 10 80 2 25 9 86 14 135 6 50 13 113 16 140 4 28 8 61 10 75
3 23 10 83 20 180 2 19 9 76 15 125 5 50 13 113 16 140 2 28 10 86 15 130 6
44 12 96 14 116 4 51 17 161 20 179 1 8 6 47 9 85 4 39 9 81 11 95 4 25 10 80
20 175 3 28 12 104 20 170 8 66 17 145 20 175 3 30 7 69 10 85 3 17 7 50 10
75 2 25 8 83 14 130 6 47 14 112 17 145 3 33 7 71 9 85 1 14 5 43 8 65 4 22 9
67 12 100 3 33 12 116 20 185 8 69 17 145 20 170 3 25 8 61 10 80 3 19 7 55
10 80 6 66 15 145 25 230 5 41 12 102 15 135 4 33 8 71 10 85 3 14 7 50 10 80
3 30 9 89 15 130 5 41 12 102 15 135 4 33 8 71 10 85 6 45 16 124 20 165 8 83
36 323 45 390 5 39 12 97 15 130 4 33 8 74 10 90 2 17 6 57 10 91 3 33 7 71
10 85 2 13 9 69 15 124 11 96 14 122 25 218 3 23 8 65 10 92 11 97 25 220 30
255 2 14 6 52 10 85 3 33 13 116 21 185 8 69 16 145 19 170 3 25 7 61 10 80 3
19 7 55 9 80 3 25 9 83 15 130 6 47 13 110 16 140 3 30 7 66 10 80 3 14 7 52
10 85 7 76 14 139 21 190 3 22 7 58 9 80 2 22 11 99 20 170 9 72 18 148 20
170 7 74 16 150 30 265 8 63 17 140 20 170 13 116 16 147 25 220 5 41 12 102
15 135 4 33 8 71 10 85 3 24 9 71 20 168 3 23 7 59 9 80 3 20 10 82 16 137 6
55 15 132 20 170 5 39 11 93 14 120 3 28 10 91 16 140 5 50 13 113 16 140 2
28 9 84 14 125 11 89 19 157 26 225 3 28 11 102 19 165 8 63 17 142 20 175 4
33 8 71 10 85 3 22 27 230 41 360 2 25 7 59 9 75 3 17 7 50 10 75 2 25 8 83
14 130 6 47 13 110 16 140 3 30 7 66 10 80 2 14 7 52 10 85 9 89 15 145 21
190 3 22 7 58 9 80 2 22 11 99 20 170 9 72 18 148 20 170 8 75 16 150 25 225
5 41 12 102 15 135 4 33 8 72 11 86 2 14 6 52 9 85 4 32 10 88 15 124 5 36 10
75 10 88 l0 22 -2745 0 -2745 0 -1 -27 c-3 -75 -14 -508 -34 -1298 -3 -132 -8
-316 -10 -410 -2 -93 -7 -271 -10 -395 -3 -124 -8 -313 -10 -420 -3 -107 -7
-285 -10 -395 -3 -110 -7 -288 -10 -395 -2 -107 -7 -296 -10 -420 -3 -124 -7
-308 -10 -410 -7 -283 -19 -747 -30 -1200 -3 -124 -7 -304 -10 -400 -3 -96 -7
-274 -10 -395 -3 -121 -7 -303 -10 -405 -3 -102 -7 -282 -10 -400 -3 -118 -8
-300 -10 -405 -3 -104 -7 -280 -10 -390 -3 -110 -7 -283 -10 -385 -2 -102 -7
-302 -10 -445 -3 -143 -8 -327 -10 -410 -2 -82 -7 -258 -10 -390 -3 -132 -8
-309 -10 -393 -2 -84 -7 -278 -11 -430 -3 -152 -8 -322 -9 -377 -2 -55 -4
-1387 -4 -2961 l-1 -2860 -64 0 c-35 1 -66 3 -69 6 -2 3 -12 52 -21 110 -9 58
-18 119 -21 135 -8 50 -14 88 -20 130 -4 22 -8 47 -10 55 -3 8 -7 33 -10 55
-4 22 -20 119 -36 215 -17 96 -32 189 -35 205 -3 17 -7 37 -9 45 -2 8 -7 35
-10 60 -3 25 -8 52 -10 60 -2 8 -7 31 -10 50 -14 86 -96 522 -136 730 -12 58
-25 125 -29 150 -11 58 -15 79 -35 175 -9 44 -19 89 -21 100 -2 11 -9 45 -14
75 -6 30 -20 96 -30 145 -32 151 -128 608 -134 635 -2 14 -10 48 -16 75 -6 28
-14 61 -16 75 -3 14 -12 59 -21 100 -8 41 -17 84 -19 95 -2 11 -7 34 -10 50
-3 17 -14 71 -24 120 -11 50 -21 101 -24 115 -3 14 -10 48 -15 75 -6 28 -18
88 -27 135 -8 47 -22 112 -29 145 -8 33 -16 76 -19 95 -3 19 -8 46 -11 60 -26
128 -98 506 -119 620 -2 14 -7 36 -10 50 -3 14 -7 39 -10 55 -2 17 -25 143
-50 280 -24 138 -47 264 -50 280 -2 17 -19 98 -36 180 -17 83 -34 161 -36 175
-2 14 -11 57 -20 95 -9 39 -18 81 -20 95 -2 14 -13 66 -24 115 -24 114 -57
272 -64 305 -2 14 -14 70 -26 125 -12 55 -30 144 -41 199 -11 54 -21 101 -23
105 -2 3 -7 23 -10 43 -3 21 -10 57 -15 80 -6 24 -12 57 -15 73 -3 17 -17 84
-31 150 -15 66 -33 152 -40 190 -8 39 -30 147 -50 240 -20 94 -49 233 -65 310
-16 77 -47 228 -70 335 -44 212 -98 471 -106 509 -3 13 -18 87 -35 165 -16 77
-41 195 -54 261 -51 248 -56 271 -65 310 -6 22 -12 51 -14 65 -7 38 -22 111
-56 270 -17 80 -51 244 -76 365 -25 121 -47 227 -49 235 -5 20 -54 260 -59
285 -10 50 -19 74 -29 77 -22 8 -3322 3 -3333 -4 -10 -7 -16 -26 -30 -98 -10
-48 -106 -471 -115 -505 -6 -22 -13 -49 -15 -60 -5 -30 -35 -163 -94 -415 -50
-217 -55 -241 -64 -285 -2 -11 -9 -38 -14 -60 -6 -22 -13 -51 -16 -65 -5 -29
-199 -886 -221 -975 -18 -77 -95 -413 -101 -442 -11 -56 -86 -384 -99 -433 -8
-30 -16 -66 -19 -80 -3 -14 -19 -88 -36 -165 -17 -77 -33 -147 -35 -155 -2 -8
-24 -105 -49 -216 -26 -111 -49 -211 -51 -223 -3 -11 -7 -29 -9 -38 -2 -10
-14 -61 -26 -113 -12 -52 -23 -104 -26 -115 -3 -11 -7 -30 -10 -41 -2 -12 -18
-82 -35 -155 -17 -74 -33 -145 -35 -159 -3 -14 -16 -72 -30 -130 -69 -298 -82
-356 -114 -520 -16 -85 -31 -166 -34 -180 -2 -14 -16 -83 -30 -155 -14 -71
-28 -143 -31 -160 -2 -16 -7 -39 -9 -50 -7 -30 -96 -475 -103 -510 -3 -16 -29
-147 -58 -290 -67 -324 -65 -316 -70 -340 -2 -11 -11 -56 -20 -100 -9 -44 -19
-91 -21 -105 -3 -14 -18 -86 -34 -160 -16 -74 -61 -283 -99 -465 -38 -181 -71
-341 -74 -355 -9 -39 -87 -422 -92 -450 -3 -14 -7 -38 -11 -55 -3 -16 -20
-109 -39 -205 -31 -164 -48 -254 -60 -325 -3 -16 -12 -64 -20 -105 -13 -67
-96 -551 -109 -640 -3 -19 -17 -102 -30 -185 -14 -82 -27 -168 -31 -190 -3
-23 -7 -50 -9 -60 -2 -11 -7 -45 -11 -75 -4 -30 -9 -64 -11 -75 -2 -10 -6 -37
-9 -60 -10 -68 -13 -89 -20 -131 l-6 -40 -67 -1 -67 0 -1 2891 c0 1590 -4
3006 -8 3146 -4 140 -9 334 -11 430 -3 96 -7 283 -11 415 -3 132 -7 305 -9
385 -7 308 -16 651 -20 795 -2 83 -7 267 -10 410 -3 143 -8 337 -10 430 -3 94
-7 265 -10 380 -3 116 -7 289 -10 385 -2 96 -7 285 -10 420 -4 135 -8 313 -10
395 -2 83 -6 258 -10 390 -3 132 -7 321 -10 420 -3 99 -7 286 -10 415 -3 129
-8 312 -10 405 -3 94 -7 276 -10 405 -3 129 -7 307 -10 395 -2 88 -7 270 -10
405 -3 135 -8 315 -10 400 -3 85 -7 263 -10 395 -3 132 -7 310 -10 395 -2 85
-7 270 -10 410 -3 140 -8 325 -10 410 -21 799 -24 920 -24 1013 l-1 77 -2950
0 -2950 0 5 -32z"/>
</g>
</svg>
