<?xml version="1.0" standalone="no"?>
<!DOCTYPE svg PUBLIC "-//W3C//DTD SVG 20010904//EN"
 "http://www.w3.org/TR/2001/REC-SVG-20010904/DTD/svg10.dtd">
<svg version="1.0" xmlns="http://www.w3.org/2000/svg"
 width="1842.000000pt" height="1842.000000pt" viewBox="0 0 1842.000000 1842.000000"
 preserveAspectRatio="xMidYMid meet">
<metadata>
Created by potrace 1.14, written by Peter Selinger 2001-2017
</metadata>
<g transform="translate(0.000000,1842.000000) scale(0.100000,-0.100000)"
fill="#000000" stroke="none">
<path d="M14190 17461 c0 -7 -6 -11 -15 -8 -8 4 -17 2 -19 -2 -3 -5 -17 -7
-31 -6 -14 2 -27 -1 -31 -6 -3 -5 -10 -7 -15 -4 -5 4 -9 2 -9 -4 0 -5 -8 -8
-17 -7 -10 2 -21 -1 -24 -6 -3 -5 -17 -10 -30 -10 -13 -1 -39 -13 -58 -27 -19
-13 -31 -19 -27 -13 4 7 3 12 -2 12 -6 0 -13 -7 -16 -16 -3 -9 -12 -14 -20
-11 -7 3 -19 -3 -26 -13 -8 -11 -17 -17 -22 -14 -4 3 -18 -4 -30 -15 -12 -12
-26 -21 -30 -21 -5 0 -21 -11 -35 -24 -15 -14 -30 -23 -35 -20 -4 3 -8 1 -8
-5 0 -5 -18 -22 -40 -39 -22 -16 -37 -32 -33 -35 3 -4 0 -7 -8 -7 -8 0 -21 -9
-29 -19 -7 -11 -17 -18 -22 -15 -4 3 -8 -2 -8 -10 0 -9 -7 -16 -17 -16 -9 0
-13 -3 -10 -7 4 -3 -4 -14 -19 -23 -14 -10 -25 -20 -25 -24 1 -10 -47 -54 -53
-48 -3 3 -6 -2 -6 -12 0 -9 -4 -14 -10 -11 -5 3 -10 1 -10 -6 0 -6 -13 -25
-30 -40 -16 -16 -50 -54 -75 -84 -25 -31 -45 -53 -45 -50 0 3 -6 0 -14 -7 -8
-7 -14 -15 -14 -18 1 -19 -3 -32 -8 -27 -8 7 -34 -17 -34 -32 0 -6 -5 -11 -11
-11 -5 0 -8 -4 -5 -9 3 -5 -4 -11 -15 -14 -12 -3 -19 -10 -16 -15 3 -4 -3 -14
-13 -22 -10 -8 -17 -17 -14 -22 3 -4 1 -8 -5 -8 -6 0 -29 -27 -51 -60 -22 -33
-45 -60 -50 -60 -6 0 -10 -7 -10 -15 0 -8 -4 -15 -9 -15 -5 0 -12 -8 -15 -17
-3 -10 -17 -30 -31 -45 -14 -16 -24 -28 -21 -28 3 0 -6 -12 -19 -26 -13 -14
-30 -39 -37 -54 -7 -16 -16 -26 -20 -24 -4 3 -8 0 -8 -7 0 -12 -70 -112 -82
-117 -5 -2 -6 -7 -3 -12 2 -4 -6 -19 -19 -33 -13 -14 -21 -28 -18 -31 3 -3 1
-6 -5 -6 -6 0 -14 -11 -17 -25 -4 -14 -10 -23 -15 -20 -5 2 -12 -6 -15 -20 -4
-14 -11 -25 -16 -25 -6 0 -10 -7 -10 -15 0 -8 -5 -15 -11 -15 -6 0 -9 -7 -5
-15 3 -8 0 -14 -7 -12 -6 1 -13 -8 -15 -21 -2 -12 -7 -20 -12 -17 -5 3 -12 -5
-16 -19 -3 -13 -12 -27 -20 -30 -8 -3 -11 -12 -8 -21 4 -10 2 -15 -7 -13 -8 2
-13 -3 -11 -9 1 -7 -3 -13 -9 -13 -5 0 -7 -4 -4 -10 3 -5 1 -10 -5 -10 -6 0
-8 -4 -5 -10 3 -5 2 -10 -2 -10 -5 0 -17 -17 -28 -37 -11 -21 -28 -47 -37 -57
-10 -10 -15 -23 -12 -28 3 -4 0 -8 -6 -8 -6 0 -8 -4 -5 -10 3 -5 2 -10 -3 -10
-9 0 -37 -50 -34 -62 1 -5 -5 -8 -15 -8 -9 0 -13 -3 -10 -7 4 -3 3 -11 -2 -17
-23 -29 -59 -104 -53 -111 4 -5 2 -5 -5 -1 -7 3 -14 -2 -18 -14 -3 -11 -11
-20 -16 -20 -5 0 -8 -3 -7 -7 3 -15 -22 -63 -32 -63 -6 0 -8 -4 -5 -10 3 -5 1
-10 -5 -10 -6 0 -9 -4 -6 -9 3 -4 -3 -19 -14 -31 -11 -13 -20 -29 -20 -37 0
-8 -5 -11 -10 -8 -6 4 -9 3 -8 -2 4 -15 -13 -53 -24 -53 -5 0 -8 -7 -4 -15 3
-8 1 -15 -4 -15 -8 0 -15 -11 -55 -87 -10 -18 -22 -33 -27 -33 -6 0 -4 -8 3
-17 7 -10 9 -15 5 -11 -8 7 -38 -31 -45 -57 -2 -5 -12 -22 -23 -37 -11 -16
-16 -28 -11 -28 4 0 1 -5 -7 -10 -8 -5 -15 -13 -16 -17 -2 -21 -17 -42 -26
-37 -5 3 -9 0 -7 -7 3 -28 -1 -50 -10 -45 -5 3 -11 -4 -14 -15 -3 -12 -10 -19
-15 -15 -5 3 -8 -5 -7 -17 1 -12 -1 -24 -4 -27 -19 -16 -44 -52 -31 -45 10 6
9 2 -3 -12 -10 -12 -27 -36 -37 -55 -10 -18 -23 -32 -29 -31 -6 2 -8 -4 -5
-12 4 -8 1 -15 -6 -15 -6 0 -8 -4 -5 -10 3 -5 2 -10 -4 -10 -5 0 -12 -8 -15
-18 -4 -10 -14 -27 -24 -38 -46 -52 -56 -67 -42 -59 8 4 5 -3 -7 -16 -52 -55
-93 -104 -93 -111 0 -5 -7 -8 -15 -8 -9 0 -12 -6 -8 -17 3 -10 3 -15 -1 -12
-9 8 -76 -56 -76 -72 0 -7 -3 -10 -6 -6 -3 3 -20 -9 -37 -26 -17 -18 -36 -32
-42 -32 -5 -1 -9 -6 -8 -13 2 -7 -3 -12 -11 -12 -8 0 -21 -8 -28 -17 -7 -10
-20 -19 -28 -21 -8 -2 -20 -10 -26 -17 -6 -8 -14 -12 -17 -8 -4 3 -9 -2 -13
-11 -3 -9 -10 -13 -15 -10 -5 3 -9 0 -9 -5 0 -6 -9 -11 -19 -11 -11 0 -27 -7
-35 -16 -9 -8 -20 -12 -26 -9 -6 3 -13 0 -16 -8 -5 -13 -10 -15 -54 -19 -11
-1 -19 -7 -16 -13 2 -7 -2 -12 -10 -12 -7 0 -10 5 -7 11 4 6 -1 5 -10 -2 -9
-8 -22 -10 -28 -6 -7 4 -9 3 -5 -4 7 -12 -32 -11 -53 3 -9 5 -12 4 -8 -2 4 -6
0 -13 -8 -17 -8 -3 -15 0 -15 6 0 6 -6 5 -17 -3 -15 -12 -16 -12 -8 1 6 12 5
13 -6 3 -14 -14 -33 -18 -25 -5 2 4 -4 8 -14 8 -10 0 -16 -4 -14 -8 3 -4 -2
-8 -10 -8 -9 0 -16 6 -16 13 0 8 -4 7 -10 -3 -8 -13 -10 -13 -10 0 0 10 -3 11
-12 2 -7 -7 -17 -8 -30 -1 -10 5 -18 7 -18 3 0 -3 -7 -1 -15 6 -13 11 -14 10
-8 -6 5 -15 4 -17 -8 -8 -18 15 -61 25 -53 13 9 -15 -14 -10 -30 7 -9 9 -16
11 -16 4 0 -6 -4 -9 -9 -6 -5 4 -12 0 -14 -6 -3 -8 -6 -6 -6 5 -1 15 -4 16
-23 6 -18 -10 -20 -9 -14 6 5 14 3 15 -6 8 -7 -6 -22 -9 -33 -7 -11 2 -48 4
-82 5 -43 1 -61 5 -56 13 4 6 0 5 -9 -2 -12 -9 -18 -10 -23 -2 -5 8 -11 8 -21
-1 -8 -6 -14 -8 -14 -4 0 4 -7 2 -15 -5 -13 -11 -14 -10 -9 3 4 12 0 15 -18
13 -13 -1 -29 -6 -36 -10 -7 -4 -12 -3 -12 1 0 10 -41 10 -58 -1 -7 -4 -12 -3
-12 1 0 12 -93 10 -102 -2 -5 -6 -8 -5 -8 3 0 10 -5 10 -21 1 -12 -6 -19 -7
-16 -2 6 10 -145 9 -162 -1 -6 -4 -11 -4 -11 1 0 4 -13 8 -30 9 -17 1 -27 -3
-23 -9 4 -6 1 -7 -7 -2 -18 11 -71 14 -64 3 3 -4 0 -8 -5 -8 -6 0 -11 4 -11 8
0 9 -47 8 -57 -1 -3 -4 -12 -2 -19 4 -9 7 -19 7 -33 0 -26 -14 -34 -14 -25 2
6 9 4 9 -7 1 -8 -6 -35 -10 -61 -10 -27 1 -48 -3 -48 -9 0 -5 -4 -4 -9 4 -5 8
-11 9 -15 3 -3 -6 -15 -8 -27 -5 -12 4 -25 0 -30 -8 -6 -10 -9 -10 -9 -1 0 6
-8 12 -18 12 -10 0 -24 -6 -31 -12 -11 -11 -12 -10 -6 2 8 13 7 13 -8 1 -14
-11 -17 -11 -17 0 -1 10 -4 9 -14 -3 -10 -13 -16 -14 -24 -6 -18 18 -45 19
-38 2 3 -9 1 -12 -4 -9 -5 3 -19 8 -31 10 -15 3 -19 0 -15 -10 3 -9 0 -12 -9
-8 -8 3 -12 10 -9 15 4 6 -2 5 -14 -1 -16 -9 -24 -7 -38 7 -17 16 -18 16 -11
-2 5 -13 3 -17 -7 -13 -7 3 -19 0 -26 -6 -10 -10 -12 -8 -6 7 5 16 4 17 -9 6
-9 -7 -18 -10 -22 -7 -3 4 -12 2 -20 -4 -7 -6 -13 -7 -13 -2 0 10 -28 11 -45
2 -6 -3 -26 -7 -45 -8 -49 -2 -68 -6 -76 -14 -4 -4 -14 -1 -22 6 -13 10 -14 9
-7 -2 6 -11 4 -13 -7 -9 -8 4 -21 2 -29 -2 -8 -5 -19 -4 -26 2 -8 7 -13 7 -13
0 0 -5 -15 -8 -32 -7 -18 1 -36 -3 -40 -9 -5 -7 -8 -7 -8 3 0 11 -3 11 -15 1
-12 -10 -15 -10 -15 0 0 9 -7 7 -22 -6 -12 -10 -18 -14 -15 -7 4 6 3 14 -2 17
-5 3 -12 -2 -15 -11 -6 -15 -8 -15 -16 -3 -6 8 -10 10 -10 4 0 -6 -10 -10 -22
-9 -13 1 -29 -3 -37 -9 -12 -9 -13 -8 -6 4 7 12 6 13 -6 3 -23 -18 -64 -21
-61 -3 1 9 -6 6 -18 -9 -11 -13 -20 -18 -20 -11 0 10 -3 10 -14 1 -10 -9 -16
-9 -21 -1 -5 8 -10 8 -20 0 -7 -6 -17 -10 -21 -9 -5 1 -22 1 -39 0 -23 -1 -27
-3 -15 -11 9 -6 10 -10 3 -10 -6 0 -15 5 -18 10 -5 8 -11 7 -21 -1 -11 -9 -14
-8 -14 2 -1 9 -4 8 -11 -4 -9 -15 -13 -16 -27 -5 -13 11 -14 11 -7 -1 6 -11 4
-13 -7 -8 -9 3 -21 0 -28 -6 -10 -9 -11 -9 -6 1 8 14 -10 17 -19 2 -3 -5 -11
-10 -16 -10 -6 0 -7 6 -3 13 5 8 2 8 -9 -2 -14 -11 -17 -11 -17 0 0 9 -4 8
-12 -3 -17 -21 -39 -27 -60 -17 -11 6 -19 5 -24 -3 -5 -7 -3 -8 6 -3 9 5 11 4
6 -4 -6 -9 -11 -9 -22 0 -11 9 -14 9 -14 0 0 -9 -5 -9 -21 0 -12 6 -19 7 -15
1 11 -18 -23 -22 -34 -4 -10 14 -11 15 -7 1 4 -13 -1 -17 -21 -16 -34 0 -55
-5 -64 -18 -5 -6 -8 -6 -8 2 0 9 -7 8 -27 -2 -15 -8 -30 -12 -35 -9 -5 3 -16
0 -25 -8 -14 -11 -16 -11 -8 2 7 12 6 13 -6 4 -8 -6 -24 -10 -37 -8 -17 3 -21
0 -16 -8 5 -8 0 -7 -11 2 -15 12 -17 12 -10 1 6 -11 2 -13 -19 -9 -17 4 -29 1
-33 -7 -3 -10 -13 -11 -34 -5 -16 5 -27 5 -24 0 2 -4 -3 -14 -12 -21 -10 -8
-14 -9 -10 -2 4 6 3 14 -3 18 -9 5 -14 -7 -11 -27 0 -4 -6 -5 -14 -2 -8 4 -12
10 -9 15 3 5 0 9 -5 9 -6 0 -11 -4 -11 -9 0 -5 -11 -8 -25 -7 -13 2 -22 -1
-19 -5 4 -7 -25 -12 -52 -8 -4 0 -11 -5 -15 -13 -7 -10 -9 -10 -9 0 0 8 -5 10
-12 6 -18 -11 -48 -12 -48 -2 0 5 -5 6 -10 3 -6 -4 -7 -12 -4 -18 5 -9 4 -9
-6 0 -7 6 -19 9 -28 6 -11 -5 -13 -3 -7 7 6 9 4 11 -6 4 -19 -11 -52 -11 -61
0 -4 6 -14 4 -24 -5 -11 -9 -15 -9 -10 -1 5 8 1 12 -11 12 -11 0 -25 6 -32 13
-11 10 -13 9 -7 -3 5 -9 2 -9 -7 2 -8 10 -17 15 -20 11 -9 -9 -87 18 -87 30 0
5 -8 3 -17 -4 -11 -10 -14 -10 -9 -1 6 11 -5 17 -26 13 -5 0 -8 4 -8 10 0 5
-4 7 -10 4 -6 -3 -10 -1 -10 5 0 7 -6 10 -14 7 -8 -3 -17 1 -20 8 -3 8 -14 12
-26 10 -11 -2 -18 0 -15 6 6 8 -8 13 -28 10 -5 -1 -6 2 -4 6 3 5 -1 14 -9 21
-10 9 -14 10 -14 1 0 -7 -9 -2 -20 11 -11 13 -20 19 -20 14 0 -5 -5 -1 -11 9
-5 9 -16 17 -24 17 -8 0 -21 10 -29 22 -9 12 -16 18 -16 13 0 -5 -12 3 -26 18
-14 15 -29 25 -35 22 -5 -4 -9 -1 -9 5 0 15 -26 41 -34 33 -3 -3 -8 2 -12 11
-3 9 -13 16 -21 16 -8 0 -11 5 -8 10 6 9 -8 14 -28 11 -4 0 -6 5 -5 11 2 7 -3
12 -9 10 -7 -1 -13 6 -13 15 0 15 -2 16 -10 3 -9 -13 -10 -13 -10 0 0 9 -9 23
-20 33 -11 9 -20 14 -20 11 0 -2 -12 8 -28 23 -15 15 -26 31 -24 35 2 7 -13
12 -30 9 -5 0 -8 9 -9 21 0 22 -1 22 -9 3 -8 -18 -9 -18 -9 -2 -1 21 -24 47
-41 47 -6 0 -8 5 -5 10 3 6 0 10 -7 10 -20 0 -61 48 -52 61 4 8 3 9 -4 5 -6
-4 -20 -1 -31 6 -16 10 -18 15 -8 27 9 12 9 13 -1 7 -13 -8 -45 17 -35 28 4 3
-4 6 -16 6 -12 0 -19 4 -16 10 3 6 -1 10 -9 10 -9 0 -15 6 -14 13 2 6 -2 11
-9 10 -6 -2 -15 6 -18 17 -4 11 -12 20 -20 20 -7 0 -15 9 -18 20 -3 11 -13 20
-22 20 -9 0 -14 4 -10 9 3 6 -4 15 -15 21 -11 6 -17 16 -14 22 5 7 0 9 -14 6
-14 -4 -19 -2 -16 7 3 7 -4 19 -15 27 -12 8 -18 17 -15 20 3 4 -4 9 -16 13
-18 6 -19 9 -8 22 12 15 11 15 -9 4 -19 -10 -23 -9 -23 4 0 8 -4 15 -10 15 -5
0 -10 7 -10 15 0 8 -7 15 -16 15 -10 0 -14 5 -10 16 3 8 2 12 -4 9 -6 -3 -10
-1 -10 5 0 6 -4 9 -9 5 -5 -3 -12 4 -16 15 -4 11 -11 17 -17 14 -8 -5 -9 -1
-4 12 4 10 4 15 0 11 -4 -4 -13 -2 -21 4 -10 9 -11 15 -1 28 10 13 10 14 -2 4
-11 -10 -23 -2 -67 45 -29 31 -53 60 -53 65 0 4 -7 7 -15 7 -8 0 -15 4 -15 9
0 12 -80 91 -93 91 -6 0 -8 3 -4 6 7 8 -17 34 -32 34 -5 0 -13 5 -17 12 -4 6
-3 8 4 4 6 -3 14 -2 17 4 4 6 3 10 -2 9 -12 -3 -52 15 -52 24 -1 4 -1 12 -1
17 0 6 -3 9 -7 8 -13 -4 -53 35 -53 51 0 8 -3 12 -6 8 -7 -6 -54 41 -54 54 0
5 -6 8 -12 7 -7 -2 -12 2 -11 9 2 6 -6 15 -17 18 -11 4 -20 11 -20 16 0 6 -4
7 -10 4 -5 -3 -10 1 -10 10 0 9 -4 13 -10 10 -5 -3 -10 1 -10 10 0 8 -10 20
-22 25 -13 5 -19 9 -15 9 11 1 -40 51 -53 51 -5 0 -10 5 -10 11 0 16 -62 69
-73 62 -6 -4 -8 1 -4 11 4 9 3 15 -2 12 -12 -8 -33 19 -23 29 4 5 1 5 -5 1 -7
-4 -13 -2 -13 4 0 6 -4 8 -10 5 -5 -3 -10 1 -10 9 0 15 -12 21 -34 17 -5 -1
-4 5 3 13 11 13 10 15 -8 11 -12 -2 -19 0 -16 6 4 5 1 9 -5 9 -6 0 -8 5 -5 10
4 6 3 10 -2 9 -21 -4 -31 3 -36 21 -3 11 -12 20 -21 20 -9 0 -16 5 -16 10 0 6
-7 10 -16 10 -11 0 -14 5 -10 17 4 10 4 14 0 11 -6 -6 -15 -1 -49 30 -9 8 -12
18 -9 24 4 7 2 8 -4 4 -15 -9 -55 18 -44 29 4 4 -1 5 -11 2 -11 -4 -17 -1 -17
8 0 8 -7 15 -15 15 -8 0 -15 5 -15 10 0 6 -7 10 -16 10 -8 0 -13 4 -10 9 3 4
-6 13 -20 20 -15 6 -22 16 -18 23 4 6 3 8 -4 4 -6 -3 -13 -2 -17 4 -4 6 -12 7
-18 4 -7 -4 -9 -4 -6 0 10 10 -34 53 -48 48 -7 -2 -13 3 -13 12 0 9 -7 16 -15
16 -8 0 -15 4 -15 10 0 10 -56 43 -64 38 -2 -2 -8 1 -13 6 -5 6 -2 6 7 1 13
-8 13 -7 1 9 -8 9 -20 15 -28 12 -7 -3 -13 1 -13 8 0 8 -8 16 -17 20 -23 7
-56 28 -65 41 -4 6 -8 6 -8 1 0 -5 -8 1 -19 12 -10 12 -23 22 -30 22 -6 0 -11
3 -11 8 0 4 -14 13 -30 20 -17 8 -27 18 -24 24 4 6 -2 8 -16 3 -17 -5 -21 -4
-15 6 6 9 3 11 -9 6 -9 -4 -15 -3 -12 1 6 10 -68 52 -91 52 -8 0 -11 5 -7 12
5 7 2 9 -9 5 -9 -3 -18 0 -21 9 -3 8 -9 14 -13 13 -22 -4 -34 2 -27 14 5 7 0
6 -11 -3 -11 -9 -16 -10 -11 -2 6 11 0 14 -21 11 -3 0 -10 6 -15 14 -5 9 -16
13 -28 10 -12 -3 -20 0 -20 7 0 7 -7 10 -15 6 -8 -3 -15 -1 -15 5 0 6 -7 9
-15 5 -8 -3 -15 -1 -15 4 0 6 -9 10 -21 10 -11 0 -18 4 -15 8 3 5 -1 9 -9 9
-8 0 -12 -4 -9 -9 3 -4 -2 -5 -10 -2 -9 3 -14 9 -12 13 3 4 -8 6 -22 5 -15 -1
-35 3 -45 8 -12 6 -17 5 -17 -4 0 -10 -2 -10 -8 -1 -5 9 -39 11 -117 8 -100
-3 -166 -9 -172 -15 -4 -3 -13 -6 -50 -15 -18 -4 -33 -11 -33 -15 0 -5 -9 -6
-20 -3 -15 4 -20 0 -21 -13 0 -12 -3 -14 -6 -6 -4 10 -11 8 -29 -9 -13 -12
-24 -19 -24 -15 0 4 -6 1 -14 -6 -8 -7 -31 -24 -51 -38 -20 -14 -48 -36 -63
-50 -14 -14 -30 -24 -34 -22 -4 1 -7 -4 -6 -10 2 -7 -2 -12 -9 -11 -8 2 -10
-4 -6 -14 4 -11 3 -14 -5 -9 -7 4 -12 3 -12 -3 0 -17 -46 -61 -56 -53 -4 4 -3
0 4 -9 10 -14 10 -18 -3 -23 -8 -3 -15 -12 -15 -21 0 -8 -4 -15 -10 -15 -5 0
-12 -11 -16 -25 -3 -14 -11 -25 -16 -25 -6 0 -8 -7 -4 -15 3 -8 1 -15 -5 -15
-6 0 -8 -4 -5 -9 4 -5 2 -11 -3 -13 -5 -1 -11 -12 -13 -23 -1 -11 -10 -26 -18
-33 -8 -8 -10 -11 -3 -8 6 3 3 -12 -8 -33 -10 -22 -19 -45 -19 -51 0 -6 -6 -8
-13 -4 -8 5 -8 2 2 -9 10 -13 10 -17 1 -17 -7 0 -10 -7 -6 -15 3 -8 1 -15 -5
-15 -6 0 -8 -4 -4 -9 3 -5 1 -12 -5 -16 -6 -4 -8 -10 -5 -15 3 -5 1 -11 -4
-15 -5 -3 -8 -14 -6 -25 2 -11 -1 -20 -7 -20 -5 0 -8 -6 -5 -14 3 -7 0 -19 -6
-25 -6 -6 -8 -11 -4 -11 3 0 0 -18 -8 -40 -8 -22 -12 -40 -8 -40 3 0 0 -7 -7
-15 -10 -12 -10 -15 1 -15 11 0 11 -2 1 -8 -7 -5 -10 -16 -6 -25 3 -10 1 -17
-5 -17 -6 0 -10 -3 -9 -7 3 -12 -13 -107 -20 -117 -3 -6 -7 -33 -9 -60 -4 -63
-10 -117 -21 -177 -5 -26 -7 -54 -6 -63 1 -9 -1 -16 -4 -16 -4 0 -7 -32 -7
-70 0 -38 -4 -70 -8 -70 -4 0 -3 -9 3 -20 6 -12 7 -20 1 -20 -11 0 -9 -19 3
-39 6 -9 5 -12 -2 -7 -7 4 -10 -8 -8 -39 1 -27 -2 -45 -8 -45 -7 0 -8 -3 -1
-8 11 -8 13 -142 1 -160 -4 -7 -4 -12 1 -12 4 0 8 -37 8 -83 -1 -45 1 -86 4
-91 2 -5 4 -36 4 -68 0 -32 4 -61 8 -64 5 -2 4 -16 -1 -29 -7 -17 -6 -25 1
-25 7 0 6 -6 -2 -17 -8 -10 -9 -14 -2 -10 7 5 12 1 12 -10 0 -21 6 -68 16
-138 4 -27 8 -57 8 -65 0 -8 5 -18 11 -22 7 -5 6 -8 -3 -8 -11 0 -11 -3 -1
-15 7 -8 10 -15 7 -15 -3 0 3 -37 13 -82 10 -45 17 -85 14 -89 -2 -4 0 -10 5
-13 5 -3 8 -19 7 -36 -1 -16 2 -31 6 -32 5 -2 11 -17 13 -33 8 -49 10 -59 19
-74 7 -11 6 -12 -5 -6 -11 7 -12 6 -3 -6 7 -8 15 -33 19 -56 4 -24 11 -45 15
-48 5 -3 7 -12 3 -20 -3 -9 1 -15 8 -15 11 0 11 -3 -1 -10 -12 -8 -12 -10 -1
-10 8 0 11 -3 8 -7 -4 -3 -2 -12 4 -20 8 -9 8 -13 1 -13 -7 0 -5 -10 4 -27 7
-16 14 -38 14 -50 0 -13 6 -23 13 -23 8 0 7 -4 -3 -10 -12 -7 -12 -10 -1 -10
7 0 11 -6 7 -15 -3 -8 -2 -15 3 -15 4 0 7 -10 6 -22 -1 -13 2 -26 8 -29 5 -4
10 -18 10 -33 0 -14 3 -26 8 -26 4 0 7 -8 6 -18 -1 -17 19 -101 31 -132 3 -8
7 -19 8 -25 1 -5 3 -12 4 -15 1 -3 3 -14 5 -25 8 -44 17 -81 22 -95 7 -18 12
-37 18 -70 2 -14 9 -41 16 -60 6 -19 12 -48 14 -65 1 -16 6 -38 10 -47 4 -9 4
-21 1 -27 -4 -5 -2 -12 4 -16 5 -3 10 -15 10 -26 0 -10 3 -19 8 -19 4 0 8 -21
10 -48 2 -26 7 -49 13 -50 6 -3 5 -10 -2 -19 -8 -9 -9 -17 -3 -21 5 -4 11 -18
13 -32 4 -32 9 -55 11 -55 1 0 4 -18 6 -39 3 -21 9 -46 14 -55 5 -10 4 -24 -1
-34 -6 -9 -6 -17 -2 -17 4 0 8 -12 9 -27 0 -16 4 -53 8 -83 4 -30 9 -73 12
-95 3 -22 6 -98 7 -170 2 -71 6 -135 10 -142 4 -6 1 -13 -5 -16 -10 -3 -10 -7
-1 -19 7 -8 10 -18 6 -21 -8 -8 -11 -77 -4 -77 8 0 5 -80 -4 -105 -5 -15 -4
-17 3 -6 8 11 11 4 11 -30 0 -67 9 -133 18 -136 4 -2 7 -20 7 -40 -1 -21 2
-40 7 -43 4 -3 9 -25 10 -48 2 -23 7 -42 12 -42 5 0 7 -7 3 -15 -3 -8 0 -20 7
-27 7 -7 13 -22 14 -33 2 -11 4 -30 5 -42 1 -13 6 -23 10 -23 4 0 8 -11 8 -25
0 -14 5 -25 10 -25 6 0 10 -10 10 -23 0 -13 5 -28 12 -35 7 -7 8 -12 3 -12 -4
0 0 -10 11 -22 12 -13 13 -18 4 -13 -12 7 -13 6 -3 -7 7 -8 10 -18 6 -21 -3
-4 -1 -7 6 -7 7 0 10 -4 7 -9 -3 -5 1 -14 9 -21 8 -7 12 -16 9 -21 -3 -5 -1
-9 5 -9 6 0 8 -7 5 -15 -4 -8 -1 -15 6 -15 6 0 8 -4 5 -10 -3 -5 -1 -10 6 -10
8 0 7 -5 -2 -17 -8 -9 -9 -14 -4 -11 12 7 37 -17 28 -26 -4 -3 2 -16 13 -28
13 -14 14 -19 4 -14 -8 4 -6 0 4 -8 11 -9 17 -16 13 -16 -4 0 7 -26 23 -59 17
-32 30 -66 30 -75 0 -9 4 -16 9 -16 9 0 35 -58 32 -72 0 -5 3 -8 9 -8 5 0 10
-9 10 -20 0 -11 4 -20 8 -20 4 0 9 -8 10 -17 3 -32 7 -48 15 -60 5 -8 3 -13
-4 -13 -8 0 -8 -4 1 -15 7 -8 8 -15 3 -15 -5 0 -9 -17 -10 -37 -4 -125 -6
-154 -14 -159 -4 -2 -5 -12 -2 -21 6 -15 7 -73 3 -90 -1 -5 -2 -11 -1 -15 2
-12 12 -240 13 -293 1 -27 6 -53 12 -57 7 -5 6 -8 -3 -8 -11 0 -11 -3 -1 -15
9 -11 9 -15 1 -15 -7 0 -9 -5 -4 -12 12 -21 12 -38 0 -38 -7 0 -6 -4 3 -10 8
-5 11 -12 7 -16 -4 -4 -2 -13 4 -21 9 -10 8 -13 0 -13 -7 0 -9 -4 -6 -10 3 -5
8 -33 10 -62 3 -29 7 -69 10 -88 2 -19 5 -50 6 -67 1 -18 5 -33 8 -33 3 0 7
-19 7 -43 3 -85 9 -137 17 -137 4 0 3 -9 -3 -19 -5 -11 -6 -21 -1 -23 5 -2 10
-23 12 -48 1 -25 7 -53 12 -64 7 -14 6 -16 -4 -11 -8 5 -10 4 -5 -4 13 -21 15
-81 3 -81 -8 0 -9 -3 -1 -8 15 -10 25 -42 13 -42 -6 0 -7 -5 -3 -11 8 -13 12
-369 4 -369 -10 0 -5 -65 5 -72 6 -5 5 -8 -4 -8 -9 0 -11 -8 -7 -25 4 -15 2
-25 -4 -25 -7 0 -8 -6 -1 -19 6 -10 7 -21 4 -25 -12 -12 -12 -36 0 -36 9 0 9
-2 0 -8 -10 -6 -24 -79 -26 -139 -1 -13 -3 -23 -7 -23 -3 0 -6 -21 -7 -48 -1
-26 -8 -75 -15 -109 -8 -34 -14 -71 -13 -82 1 -12 -2 -21 -7 -21 -5 0 -6 -5
-3 -10 4 -6 2 -17 -5 -25 -8 -9 -8 -15 0 -20 6 -3 7 -12 3 -18 -4 -7 -8 -27
-10 -46 -2 -19 -6 -37 -10 -40 -5 -3 -9 -28 -11 -55 -1 -27 -7 -55 -13 -62 -5
-7 -6 -15 -1 -18 10 -6 9 -32 -2 -58 -4 -9 -9 -31 -11 -50 -2 -18 -4 -33 -5
-33 -1 0 -4 -20 -5 -44 -2 -24 -7 -51 -11 -60 -9 -23 -10 -72 -1 -78 4 -3 4
-10 -1 -16 -5 -7 -9 -19 -10 -27 0 -8 -3 -55 -7 -105 -11 -143 -8 -465 5 -465
3 0 4 -16 2 -36 -3 -24 0 -39 9 -45 8 -5 9 -9 3 -9 -6 0 -11 -7 -11 -15 0 -8
4 -15 9 -15 5 0 4 -9 -2 -20 -6 -11 -7 -20 -2 -20 4 0 9 -19 11 -42 1 -23 6
-48 11 -57 4 -8 4 -25 -1 -39 -6 -15 -5 -21 1 -17 6 4 10 -5 10 -19 0 -14 5
-26 11 -26 8 0 8 -5 -1 -15 -8 -9 -8 -15 -2 -15 6 0 10 -8 10 -17 0 -10 2 -29
5 -43 3 -14 8 -36 11 -49 3 -12 9 -28 14 -35 4 -6 7 -21 6 -33 0 -13 4 -23 10
-23 6 0 4 -5 -4 -10 -10 -6 -11 -10 -3 -10 7 0 12 -3 12 -7 -1 -5 -1 -10 1
-13 1 -3 4 -16 6 -30 2 -13 8 -27 13 -30 4 -3 7 -13 5 -23 -1 -9 4 -24 13 -32
10 -11 11 -15 2 -15 -10 0 -10 -3 -1 -12 7 -7 12 -20 12 -30 0 -10 5 -18 11
-18 6 0 9 -7 5 -15 -3 -8 1 -20 8 -27 7 -8 12 -21 10 -31 -1 -9 2 -17 7 -17 6
0 7 -4 4 -10 -3 -5 -1 -10 6 -10 7 0 9 -3 6 -7 -4 -3 0 -17 9 -31 10 -16 11
-22 3 -16 -7 4 -3 -7 10 -24 12 -18 19 -32 15 -32 -3 0 -1 -7 6 -15 6 -8 8
-20 4 -26 -4 -8 -3 -9 4 -5 7 4 12 1 12 -8 0 -9 4 -16 9 -16 6 0 8 -9 6 -20
-2 -11 1 -20 6 -20 6 0 7 -4 4 -10 -3 -5 -1 -10 4 -10 6 0 11 -9 11 -20 0 -11
4 -20 9 -20 5 0 14 -15 22 -32 7 -18 21 -46 32 -61 10 -16 17 -31 13 -34 -3
-3 4 -14 16 -25 12 -10 19 -21 15 -24 -3 -3 2 -14 11 -24 33 -37 39 -46 36
-63 -1 -9 2 -15 6 -12 5 3 19 -13 30 -35 12 -23 27 -43 35 -47 8 -3 15 -11 15
-19 0 -13 17 -37 60 -84 8 -9 16 -23 18 -30 4 -19 49 -59 57 -52 3 4 3 -1 0
-10 -4 -10 3 -23 19 -36 14 -11 26 -25 26 -30 0 -6 10 -14 21 -17 17 -6 19 -9
8 -16 -11 -7 -10 -9 4 -9 10 0 16 -3 14 -8 -6 -9 19 -33 27 -25 3 4 6 1 6 -6
0 -7 13 -25 30 -41 16 -15 26 -30 23 -34 -3 -3 1 -6 10 -6 10 0 17 -4 17 -9 0
-9 58 -68 95 -97 11 -8 13 -13 5 -9 -8 4 -6 -1 4 -9 11 -9 24 -16 29 -16 4 0
5 -5 2 -10 -3 -6 -1 -10 5 -10 15 0 60 -47 52 -54 -3 -4 1 -4 11 0 10 3 17 1
17 -5 0 -15 51 -60 68 -61 7 0 10 -4 7 -10 -6 -10 9 -15 30 -10 5 1 7 -1 3 -5
-7 -7 15 -35 27 -35 3 0 16 -11 29 -25 13 -13 26 -22 29 -18 4 3 7 -2 7 -11 0
-12 5 -16 15 -12 9 3 15 0 15 -9 0 -7 5 -17 12 -21 7 -5 9 -2 4 7 -4 8 1 4 10
-9 9 -12 22 -22 28 -22 6 0 18 -9 26 -20 8 -11 20 -20 28 -20 7 0 15 -7 18
-15 4 -8 10 -12 15 -9 5 3 9 0 9 -5 0 -6 6 -11 14 -11 8 0 22 -10 31 -22 14
-21 14 -24 -2 -36 -70 -50 -134 -108 -127 -115 3 -2 -6 -7 -20 -11 -14 -3 -30
-15 -36 -26 -6 -11 -15 -18 -20 -15 -5 3 -7 -4 -5 -16 3 -16 1 -18 -9 -10 -10
8 -16 5 -25 -15 -6 -15 -14 -24 -17 -21 -7 6 -54 -38 -55 -50 0 -5 -11 -14
-25 -21 -13 -7 -24 -17 -24 -22 0 -5 -9 -12 -21 -15 -13 -4 -18 -12 -15 -21 3
-9 1 -12 -4 -9 -6 3 -10 1 -10 -5 0 -6 -4 -8 -10 -5 -9 6 -14 -8 -11 -28 1 -5
-3 -6 -9 -2 -5 3 -32 -17 -59 -44 -28 -28 -55 -51 -61 -51 -6 0 -9 -4 -6 -9 6
-9 -22 -26 -37 -22 -5 1 -6 -3 -2 -9 3 -5 -1 -13 -9 -16 -9 -3 -16 -12 -16
-20 0 -8 -3 -13 -8 -11 -10 3 -52 -40 -45 -47 4 -3 1 -6 -5 -6 -7 0 -12 -4
-12 -8 0 -5 7 -9 15 -9 8 0 15 4 15 9 0 4 7 8 15 8 9 0 12 6 8 15 -3 9 -2 15
3 14 18 -3 37 1 31 7 -7 8 17 34 32 34 6 0 11 5 11 10 0 6 4 10 10 10 14 0 50
37 43 44 -4 3 1 6 10 6 10 0 17 5 17 11 0 5 4 7 10 4 5 -3 10 1 10 9 0 9 5 16
11 16 7 0 25 13 40 30 16 16 29 27 29 23 0 -3 8 4 19 15 10 12 24 22 30 22 7
0 10 4 7 9 -3 5 1 12 10 15 8 3 12 11 8 17 -4 7 -3 9 4 5 11 -7 99 72 94 87
-1 4 2 6 7 3 5 -4 12 -2 16 4 4 6 10 8 15 5 4 -3 7 3 6 13 0 9 5 16 12 14 8
-1 16 7 19 19 4 16 8 17 14 7 7 -10 9 -9 9 5 0 9 7 17 16 17 8 0 12 5 9 10 -3
6 2 13 12 17 23 9 43 28 43 43 0 6 4 9 8 6 5 -3 14 4 22 14 8 10 18 16 23 13
6 -4 7 -1 3 6 -5 8 0 14 13 18 11 3 18 9 15 14 -3 5 4 9 16 9 12 0 18 -4 15
-10 -3 -5 3 -10 15 -10 12 0 18 -4 15 -10 -5 -9 7 -14 26 -12 4 1 19 -10 33
-23 29 -27 42 -32 30 -14 -4 7 7 1 24 -11 17 -13 28 -28 25 -33 -3 -6 -1 -7 5
-3 6 4 22 1 34 -6 13 -7 26 -11 30 -10 5 1 8 -2 8 -6 0 -5 22 -19 50 -32 28
-13 50 -28 50 -33 0 -6 3 -7 6 -4 4 3 18 -2 32 -13 13 -11 28 -17 33 -14 5 3
9 0 9 -6 0 -6 4 -9 9 -6 5 3 20 -4 35 -15 14 -11 31 -17 37 -13 8 4 9 3 5 -4
-4 -7 -1 -12 8 -12 9 0 16 -4 16 -10 0 -5 7 -7 15 -4 8 4 15 1 15 -6 0 -6 4
-8 10 -5 6 3 10 1 10 -6 0 -6 8 -9 20 -6 11 3 18 1 15 -3 -3 -5 4 -14 15 -20
11 -6 20 -7 20 -3 0 4 5 1 10 -7 6 -10 4 -20 -7 -32 -9 -10 -12 -18 -7 -18 5
0 -2 -7 -14 -16 -12 -8 -22 -22 -22 -30 0 -8 -5 -14 -11 -14 -6 0 -8 -7 -5
-16 3 -8 2 -12 -4 -9 -5 3 -16 -7 -24 -22 -8 -15 -25 -39 -38 -53 -12 -13 -22
-27 -22 -30 3 -13 -9 -29 -19 -23 -5 3 -7 1 -3 -5 3 -6 -1 -17 -10 -26 -8 -9
-12 -21 -8 -27 4 -7 3 -10 -2 -7 -10 5 -37 -22 -42 -42 -2 -8 -12 -26 -23 -42
-11 -15 -17 -28 -12 -28 4 0 0 -5 -9 -11 -10 -5 -18 -17 -18 -24 0 -8 -5 -15
-11 -15 -5 0 -7 -4 -4 -10 3 -5 1 -10 -5 -10 -6 0 -8 -5 -5 -10 3 -5 2 -10 -3
-10 -5 0 -22 -26 -38 -57 -16 -32 -31 -60 -34 -63 -13 -13 -40 -73 -35 -80 3
-4 -2 -11 -11 -14 -8 -3 -12 -10 -9 -16 3 -5 2 -10 -2 -10 -7 0 -29 -45 -34
-70 -1 -3 -8 -14 -15 -25 -8 -11 -14 -27 -14 -36 0 -10 -5 -19 -10 -21 -6 -2
-12 -14 -15 -27 -2 -14 -10 -28 -16 -32 -6 -4 -9 -11 -5 -17 3 -6 -1 -18 -10
-26 -8 -9 -13 -16 -9 -16 3 0 -1 -13 -10 -30 -9 -16 -13 -30 -11 -30 3 0 -1
-12 -9 -27 -8 -15 -12 -30 -10 -34 3 -4 -2 -10 -11 -13 -18 -7 -9 -26 12 -26
8 0 19 12 25 28 5 15 12 34 16 42 3 8 5 19 4 23 -1 5 8 21 19 38 12 16 22 38
23 49 1 11 4 20 8 20 3 0 12 18 19 40 7 22 16 40 19 40 4 0 7 10 8 22 1 11 6
24 11 27 5 3 12 16 16 29 4 12 11 22 16 22 5 0 7 9 5 20 -2 11 0 20 4 20 4 0
23 30 41 67 19 38 36 70 39 73 11 10 31 50 31 63 0 7 9 19 19 27 11 7 18 17
15 22 -3 4 0 8 6 8 6 0 9 4 6 9 -3 5 7 21 22 37 15 15 21 24 15 20 -18 -10
-16 1 5 23 32 36 43 51 37 51 -4 0 6 17 22 38 17 20 33 45 36 55 4 9 11 17 17
17 6 0 8 4 5 10 -3 5 -1 10 4 10 6 0 11 7 11 15 0 9 7 18 15 21 8 4 12 10 9
15 -3 5 -1 9 3 9 5 0 19 18 33 40 14 22 28 40 31 40 4 0 9 9 12 21 3 12 10 18
15 15 6 -3 15 8 21 26 8 23 14 29 22 21 6 -6 18 -9 25 -6 8 3 14 0 14 -7 0 -6
4 -8 10 -5 6 3 10 2 10 -4 0 -6 7 -8 15 -5 8 4 15 1 15 -5 0 -6 9 -11 20 -11
11 0 20 -4 20 -10 0 -5 7 -7 15 -4 8 4 15 1 15 -6 0 -6 5 -8 11 -4 6 3 15 1
19 -6 4 -6 19 -13 34 -13 14 -1 26 -6 26 -11 0 -4 7 -6 14 -3 11 4 13 1 9 -10
-5 -13 -3 -14 17 -3 12 7 20 8 16 2 -6 -10 17 -23 47 -27 11 -1 22 -8 27 -15
6 -10 9 -9 13 1 4 11 6 11 6 1 1 -7 5 -11 10 -7 5 3 15 0 23 -7 7 -7 20 -14
28 -16 8 -2 18 -9 22 -15 6 -9 8 -9 8 0 0 7 14 5 40 -8 21 -10 46 -19 54 -19
8 0 17 -4 20 -8 3 -4 28 -14 55 -22 28 -7 51 -18 51 -24 0 -6 5 -4 10 4 6 10
10 11 10 3 0 -7 5 -13 10 -13 6 0 29 -9 51 -19 21 -11 36 -14 32 -8 -3 7 3 3
15 -7 12 -11 22 -14 22 -8 0 6 7 9 15 6 8 -4 12 -10 9 -15 -3 -5 -2 -9 3 -8
25 4 44 -2 37 -14 -5 -9 -4 -9 5 -1 10 9 19 8 39 -2 15 -8 33 -14 40 -14 6 0
12 -5 12 -12 0 -6 3 -8 7 -5 3 4 13 1 21 -6 11 -8 14 -8 9 0 -5 8 0 9 22 0
l29 -11 -25 -32 c-14 -19 -22 -38 -17 -45 4 -7 3 -9 -4 -5 -6 3 -13 -3 -17
-14 -3 -11 -10 -20 -15 -20 -6 0 -21 -36 -19 -48 0 -2 -8 -10 -18 -18 -10 -7
-14 -14 -10 -14 5 0 1 -7 -7 -16 -9 -8 -16 -22 -16 -30 0 -8 -5 -14 -11 -14
-6 0 -9 -6 -6 -14 3 -8 -1 -17 -9 -20 -8 -3 -14 -12 -14 -21 0 -8 -5 -15 -12
-15 -6 0 -8 -3 -5 -7 4 -3 -1 -15 -10 -26 -12 -13 -13 -17 -4 -12 9 5 6 -4 -7
-22 -16 -23 -18 -33 -9 -42 9 -10 8 -11 -7 -5 -16 6 -18 4 -12 -11 4 -11 4
-16 0 -12 -9 9 -55 -83 -47 -96 3 -5 2 -7 -4 -4 -12 8 -31 -30 -28 -60 1 -15
-3 -20 -14 -15 -9 3 -13 2 -9 -3 4 -4 -2 -24 -14 -43 -14 -22 -16 -32 -7 -27
11 7 12 6 3 -6 -28 -34 -53 -90 -49 -108 2 -12 -1 -20 -8 -18 -6 1 -13 -8 -15
-20 -2 -13 -7 -23 -12 -23 -4 0 -6 -10 -2 -22 3 -11 1 -19 -4 -16 -5 4 -9 -7
-10 -23 -1 -18 3 -26 10 -22 6 4 5 0 -2 -9 -10 -13 -10 -17 3 -22 15 -5 19 5
16 33 -2 8 3 10 11 5 7 -4 10 -3 5 1 -4 5 0 19 9 33 9 13 11 21 5 18 -6 -4
-11 -2 -11 3 0 6 3 11 8 11 10 0 32 51 26 61 -3 5 0 9 6 9 6 0 9 4 5 9 -3 5 1
15 8 23 8 7 12 19 9 27 -3 8 0 11 7 7 7 -5 9 -1 5 8 -3 9 -1 16 6 16 6 0 9 4
5 9 -3 5 -1 12 5 16 6 4 8 11 5 16 -4 5 -1 9 6 9 7 0 9 3 6 7 -4 3 1 15 10 26
10 10 17 20 15 21 -2 0 1 14 7 29 6 16 11 32 11 37 0 5 3 10 8 12 11 5 42 64
42 82 0 9 5 16 10 16 6 0 10 9 10 19 0 11 3 21 8 23 7 3 41 63 71 126 8 17 19
32 24 32 4 0 5 4 2 10 -3 5 -1 10 5 10 6 0 8 4 5 10 -3 5 -1 10 4 10 6 0 11 7
11 15 0 8 5 15 10 15 6 0 10 8 10 18 0 9 11 29 25 44 14 15 25 30 25 33 -1 28
1 35 10 30 5 -3 10 0 10 7 0 7 9 19 20 26 16 10 20 10 20 0 0 -10 3 -9 9 1 6
9 10 10 12 2 2 -6 19 -12 37 -14 17 -1 32 -5 32 -9 0 -5 9 -8 20 -8 11 0 20
-4 20 -9 0 -5 7 -12 16 -15 8 -3 12 -2 9 4 -3 6 1 7 9 4 9 -3 16 -9 16 -13 0
-3 12 -7 26 -8 15 0 30 -7 34 -13 5 -7 15 -10 24 -7 9 4 16 2 16 -4 0 -6 5 -7
10 -4 6 3 10 1 10 -4 0 -6 3 -10 8 -10 22 4 42 -2 37 -11 -4 -6 -3 -10 2 -9
23 4 64 -2 59 -9 -2 -4 7 -9 21 -10 14 -1 32 -7 39 -13 8 -6 14 -8 14 -4 0 4
6 2 13 -4 8 -6 17 -8 20 -4 4 3 7 1 7 -6 0 -7 4 -10 8 -7 5 3 22 -2 38 -11 16
-9 39 -15 52 -15 12 1 22 -3 22 -8 0 -6 8 -10 18 -10 10 0 22 -3 26 -7 4 -5
11 -8 14 -9 4 0 18 -5 32 -11 14 -6 44 -17 68 -24 23 -7 42 -17 42 -22 0 -6 3
-7 7 -4 3 4 13 1 21 -6 13 -10 14 -9 7 3 -6 11 -3 10 12 -3 11 -9 23 -14 26
-10 4 3 7 0 7 -7 0 -7 3 -11 6 -7 4 3 20 -1 36 -9 16 -8 32 -12 37 -9 5 2 12
-2 15 -11 3 -8 10 -13 14 -10 5 3 17 -1 28 -8 10 -8 24 -12 31 -9 7 3 13 0 13
-6 0 -6 9 -11 20 -11 11 0 20 -4 20 -10 0 -5 11 -10 25 -10 14 0 25 -4 25 -10
0 -5 3 -9 8 -8 4 1 17 -3 30 -10 12 -7 22 -9 22 -5 0 4 7 -1 15 -11 11 -14 15
-16 15 -5 0 8 3 10 8 4 10 -15 66 -49 58 -36 -4 6 -2 11 3 11 6 0 11 -4 11
-10 0 -5 11 -12 25 -16 14 -3 25 -10 25 -15 0 -5 7 -9 15 -9 8 0 30 -9 50 -20
20 -11 42 -20 51 -20 9 0 12 -5 8 -12 -5 -8 -2 -9 9 -5 10 3 17 2 17 -3 0 -6
7 -10 15 -10 9 0 18 -7 22 -16 5 -13 7 -13 14 -2 5 8 9 9 9 2 0 -6 13 -17 30
-24 16 -7 30 -17 30 -22 0 -5 4 -7 9 -3 5 3 12 1 16 -5 4 -6 11 -8 16 -5 5 4
9 1 9 -4 0 -6 7 -11 15 -11 8 0 15 -5 15 -11 0 -5 5 -7 10 -4 5 3 10 1 10 -4
0 -6 3 -11 8 -10 14 2 52 -13 48 -20 -3 -4 5 -8 17 -8 12 -1 23 -7 25 -13 2
-5 8 -8 13 -4 5 3 9 0 9 -7 0 -7 3 -9 7 -6 3 4 15 -1 26 -10 10 -10 21 -17 23
-15 6 4 78 -30 85 -41 3 -5 10 -8 15 -8 17 1 44 -10 44 -20 0 -5 3 -8 8 -7 14
3 62 -14 62 -23 0 -5 11 -9 25 -9 14 0 25 -5 25 -11 0 -6 8 -9 18 -7 9 2 22
-2 27 -10 6 -7 17 -14 25 -15 8 -2 20 -5 25 -8 6 -4 31 -12 58 -20 26 -7 47
-17 47 -22 0 -5 6 -7 14 -4 7 3 24 -2 37 -10 12 -9 19 -11 15 -4 -6 9 -2 9 15
-1 13 -7 26 -15 29 -18 5 -5 14 -6 68 -12 12 -1 22 -6 22 -10 0 -4 13 -8 29
-8 17 0 33 -5 36 -10 4 -6 10 -8 15 -5 5 3 18 1 28 -4 13 -7 23 -6 32 2 10 10
11 9 5 -2 -6 -11 -4 -13 8 -8 10 4 17 2 17 -5 0 -6 6 -5 17 3 11 10 14 10 9 2
-7 -13 7 -17 53 -13 13 1 21 -2 18 -7 -3 -4 11 -8 31 -7 19 1 46 -2 59 -7 15
-5 23 -5 23 2 0 6 6 7 13 2 6 -4 20 -6 31 -4 13 2 16 -1 10 -11 -6 -10 -5 -11
7 -2 13 10 39 11 84 1 11 -2 28 0 38 5 11 6 17 5 17 -3 0 -8 4 -8 15 1 12 10
18 10 32 -1 15 -12 16 -12 8 1 -8 13 -7 13 8 1 9 -7 17 -10 17 -5 0 11 90 11
107 1 6 -4 14 -3 18 2 3 6 25 10 48 10 23 0 51 2 62 4 12 3 48 8 80 12 33 4
66 13 74 19 12 9 13 8 6 -4 -6 -12 -5 -12 5 -3 7 6 19 9 28 6 10 -4 13 -2 8 5
-4 8 -2 10 8 6 17 -6 166 25 166 35 0 3 16 6 36 5 23 -1 34 2 31 9 -3 8 8 12
32 12 20 0 48 5 63 13 15 7 37 15 49 17 13 3 25 8 28 13 3 5 14 8 24 6 10 -1
21 4 24 12 3 8 9 14 15 14 5 0 6 -6 2 -12 -5 -10 -4 -10 6 -1 7 6 19 9 28 6
10 -4 13 -2 8 5 -6 10 6 17 17 10 1 -1 13 5 27 13 14 8 30 15 35 15 31 5 54
18 48 27 -3 6 -1 7 6 3 6 -4 18 -2 26 4 8 6 19 9 25 5 5 -3 10 -2 10 3 0 11
51 36 68 33 6 -1 12 3 12 9 0 5 7 10 15 10 8 0 15 4 15 9 0 6 9 8 20 6 11 -2
18 0 15 5 -3 4 11 14 30 20 19 6 35 16 35 21 0 5 8 9 18 9 9 0 28 9 42 20 14
11 29 20 33 20 5 0 21 9 37 20 15 11 30 17 34 13 3 -3 6 2 6 13 0 14 2 16 9 6
6 -11 10 -10 15 4 3 9 10 14 13 10 4 -4 13 4 20 16 7 13 12 17 13 10 0 -8 8
-6 22 8 12 11 28 20 35 20 8 0 11 5 7 12 -5 7 -2 9 9 5 9 -3 18 0 21 9 3 9 10
13 15 10 5 -3 12 1 15 10 3 8 10 13 15 10 5 -3 11 0 14 8 3 8 22 20 41 27 20
7 36 19 36 26 0 7 3 12 8 12 19 -3 33 2 28 10 -3 5 6 13 22 19 15 5 40 21 57
35 16 15 31 25 33 23 2 -2 15 7 29 20 14 13 29 21 34 18 5 -3 9 -1 9 5 0 5 13
18 29 27 17 10 28 21 25 26 -3 4 4 8 16 8 11 0 23 7 26 15 4 8 15 15 26 15 10
0 16 5 13 10 -3 6 -1 10 5 10 6 0 8 5 5 10 -4 6 -3 10 2 9 22 -4 44 2 38 10
-3 5 4 12 15 16 11 3 20 11 20 16 0 5 6 9 14 9 8 0 16 7 20 15 3 8 10 15 16
15 15 0 49 37 42 45 -4 4 -2 5 3 3 15 -4 56 27 47 37 -4 5 -2 5 5 2 6 -4 18 0
26 8 9 8 20 15 26 15 6 0 11 5 11 11 0 5 4 8 9 5 5 -3 12 1 15 10 3 8 10 13
15 10 5 -3 12 1 15 10 3 8 12 14 20 12 7 -2 23 8 36 22 12 14 19 18 15 10 -4
-9 0 -7 9 4 8 10 19 15 25 11 6 -3 11 -1 11 5 0 11 48 35 63 31 5 -1 6 3 3 8
-4 5 3 12 14 16 11 3 20 11 20 16 0 6 4 7 10 4 13 -8 52 19 42 30 -4 5 -2 5 5
2 6 -4 18 0 26 8 19 18 31 20 22 3 -4 -7 0 -5 8 4 8 10 17 15 20 11 4 -3 7 1
7 11 0 9 4 15 9 12 11 -7 63 19 54 27 -3 4 4 5 15 2 12 -2 23 3 26 12 4 8 13
13 21 9 8 -3 15 -1 15 4 0 5 9 12 20 15 12 4 17 11 13 18 -4 7 2 5 12 -3 15
-12 17 -12 10 -1 -6 11 -4 13 8 8 10 -3 17 -2 17 4 0 6 5 7 10 4 6 -3 13 1 16
10 5 13 9 13 22 3 10 -8 13 -8 9 -2 -4 7 0 15 9 18 8 3 12 12 9 18 -4 7 0 5 9
-6 9 -11 22 -16 31 -12 9 3 14 2 11 -3 -7 -11 28 -51 44 -51 7 0 11 -3 7 -6
-8 -8 18 -34 33 -34 6 0 9 -3 7 -7 -6 -10 59 -73 67 -66 3 4 6 1 6 -6 0 -7 14
-26 30 -41 17 -15 30 -33 30 -40 0 -6 5 -8 10 -5 6 3 10 -2 10 -11 0 -10 3
-15 6 -11 7 6 34 -16 34 -28 0 -12 58 -65 72 -65 10 0 9 -3 -2 -10 -13 -8 -13
-10 2 -10 9 0 20 -9 23 -20 3 -11 12 -20 20 -20 13 0 30 -28 26 -43 -1 -5 2
-6 6 -4 11 7 33 -19 25 -29 -4 -4 -1 -4 6 0 9 5 15 1 19 -13 3 -11 9 -18 14
-15 5 3 9 -2 9 -10 0 -8 8 -20 18 -25 9 -6 13 -11 9 -11 -4 0 -2 -6 5 -14 7
-8 16 -12 21 -9 4 2 7 -3 7 -11 0 -9 7 -16 17 -16 9 0 14 -3 10 -6 -3 -4 -1
-12 6 -19 29 -30 47 -56 47 -66 0 -5 5 -7 10 -4 6 3 10 -1 10 -9 0 -9 7 -16
15 -16 9 0 12 -6 8 -17 -3 -10 -3 -15 2 -11 9 9 55 -41 55 -59 0 -12 12 -17
32 -14 3 0 5 -7 4 -17 -3 -18 16 -42 34 -42 6 0 9 -4 5 -9 -3 -5 5 -17 17 -25
12 -9 19 -16 14 -16 -5 0 1 -9 14 -20 13 -11 19 -20 14 -20 -5 0 -1 -5 9 -11
9 -5 17 -15 17 -21 0 -6 12 -21 28 -34 15 -13 23 -24 18 -24 -5 0 6 -14 25
-31 19 -18 27 -28 19 -24 -13 8 -13 7 0 -11 8 -10 23 -26 32 -35 10 -9 18 -21
18 -27 0 -6 8 -16 18 -21 9 -6 13 -11 9 -11 -4 0 -2 -6 5 -14 7 -8 16 -12 20
-9 4 2 5 -2 2 -10 -3 -9 6 -24 22 -36 15 -11 21 -21 15 -21 -7 0 -2 -11 11
-25 36 -38 49 -55 43 -55 -6 0 8 -18 40 -52 12 -13 14 -18 5 -14 -8 4 -5 -1 8
-10 12 -9 22 -23 22 -31 0 -10 6 -13 16 -9 13 5 14 3 6 -7 -7 -8 -7 -18 -2
-27 6 -8 10 -10 10 -5 0 6 5 3 10 -5 7 -12 12 -12 22 -2 9 9 9 12 -1 12 -6 0
-17 13 -22 30 -6 16 -15 30 -21 30 -5 0 -7 4 -4 8 3 5 -4 14 -14 22 -10 8 -17
17 -14 22 3 4 0 8 -6 8 -6 0 -8 5 -5 10 3 6 2 10 -3 10 -5 0 -15 14 -22 30 -7
17 -16 30 -21 30 -5 0 -9 7 -9 15 0 8 -4 15 -10 15 -5 0 -10 6 -10 13 0 7 -11
24 -25 39 -16 18 -20 28 -12 31 7 4 6 6 -4 6 -9 1 -22 13 -30 29 -18 36 -35
53 -43 44 -4 -3 -4 1 -1 10 4 10 -2 22 -15 31 -12 9 -19 20 -15 26 3 6 1 11
-5 11 -6 0 -16 11 -22 25 -8 19 -14 22 -20 13 -5 -9 -8 -4 -8 13 0 15 -7 30
-16 33 -8 3 -13 10 -9 15 3 5 -4 12 -15 16 -18 6 -24 17 -21 37 0 4 -8 10 -19
13 -11 4 -20 12 -20 19 0 7 -14 27 -30 45 -17 17 -27 31 -24 31 4 0 -3 9 -16
20 -13 11 -19 20 -14 20 5 0 -2 7 -14 16 -12 8 -22 22 -22 30 0 8 -4 12 -10 9
-9 -6 -14 8 -11 28 0 4 -6 7 -14 7 -9 0 -18 7 -21 15 -4 8 -10 12 -15 9 -5 -3
-9 -2 -8 3 4 21 -2 34 -13 27 -8 -5 -9 -2 -5 9 6 16 -3 22 -26 18 -5 -1 -6 2
-3 7 3 4 -6 21 -19 36 -14 16 -22 32 -20 37 3 4 -3 6 -15 4 -11 -2 -19 1 -17
8 1 7 -4 11 -12 9 -12 -3 -12 0 -1 12 10 13 10 16 -3 16 -8 0 -22 11 -31 25
-9 14 -22 23 -28 19 -6 -4 -8 -3 -4 4 3 6 -1 17 -9 25 -8 9 -15 20 -15 26 0 6
-4 11 -10 11 -5 0 -20 11 -34 25 -14 14 -23 25 -22 25 2 0 -19 24 -47 54 -29
30 -55 52 -60 49 -4 -2 -7 -1 -6 4 4 16 -13 43 -28 43 -8 0 -11 5 -7 12 5 7 2
9 -9 5 -11 -4 -14 -2 -11 8 4 9 -4 19 -20 26 -14 7 -26 17 -26 23 0 16 -48 58
-59 52 -5 -3 -7 3 -4 14 3 11 1 20 -4 20 -6 0 -26 15 -45 34 -33 32 -37 49
-13 52 25 3 55 17 55 27 0 6 3 8 6 4 4 -3 19 0 35 9 16 8 29 11 29 7 0 -4 6 1
13 11 7 9 22 18 35 19 12 0 22 5 22 10 0 4 5 5 12 1 8 -5 9 -2 4 11 -5 14 -4
16 7 6 11 -9 17 -8 26 3 7 8 22 13 33 11 11 -3 18 -2 15 2 -8 7 39 33 59 33 8
0 14 4 14 9 0 5 11 8 25 6 14 -1 28 2 31 7 7 11 75 43 87 40 4 -1 7 2 7 7 0 6
9 8 20 6 11 -2 19 1 17 8 -1 7 8 11 20 11 13 -1 20 3 17 7 -5 9 0 11 29 13 6
1 20 10 30 21 10 11 16 15 13 8 -4 -7 1 -11 13 -10 11 0 19 6 18 11 -2 9 2 11
34 15 5 0 7 6 3 13 -5 8 -2 9 10 5 10 -4 19 -1 23 9 5 13 7 13 14 2 7 -10 9
-11 9 0 0 7 5 10 10 7 6 -3 10 -1 10 5 0 6 5 8 10 5 6 -3 10 -1 10 4 0 6 7 11
16 11 8 0 12 5 8 11 -4 7 1 7 16 -1 15 -8 20 -8 16 -1 -4 6 0 11 9 11 9 0 13
4 10 10 -3 5 0 7 8 4 8 -3 17 2 20 10 4 9 13 13 22 10 8 -3 15 -1 15 6 0 6 5
8 10 5 6 -3 10 -1 10 4 0 6 9 11 20 11 11 0 23 7 26 15 5 13 9 13 23 3 9 -7
13 -9 9 -4 -10 12 15 34 31 28 9 -3 12 -1 7 6 -4 7 -1 12 10 12 9 0 32 11 50
25 22 17 32 20 28 10 -3 -8 8 -2 26 15 18 16 36 27 41 24 5 -3 9 -1 9 4 0 6
14 15 31 21 17 6 28 14 25 19 -2 4 5 9 16 9 12 1 24 7 28 13 4 6 16 12 27 13
12 0 19 6 16 13 -3 7 5 14 19 16 15 2 22 9 22 21 -2 14 1 15 12 6 10 -8 19 -5
36 13 13 12 30 24 38 26 8 2 21 10 28 19 6 9 12 13 12 8 0 -5 7 0 15 11 11 15
15 16 15 4 1 -8 5 -5 11 9 6 15 14 21 25 17 8 -3 12 -2 9 4 -6 9 8 14 28 11 5
-1 6 3 2 9 -3 5 -2 10 4 10 5 0 17 7 25 16 15 14 16 14 16 -5 0 -10 12 -32 28
-48 15 -16 28 -35 30 -43 2 -8 9 -20 16 -25 8 -6 16 -19 19 -30 4 -17 5 -17 6
-2 0 9 6 17 13 17 6 0 1 8 -10 19 -12 10 -19 21 -15 25 3 3 1 6 -5 6 -6 0 -9
9 -7 20 2 11 0 18 -6 15 -5 -4 -9 1 -9 9 0 9 -7 16 -15 16 -9 0 -12 6 -9 15 4
8 1 15 -5 15 -26 0 -2 43 34 60 5 3 9 8 8 13 -3 7 13 11 31 8 5 -1 6 5 3 13
-4 9 -3 15 1 14 14 -4 52 14 47 22 -3 4 3 11 13 15 30 14 52 15 52 5 0 -13 16
-34 53 -68 15 -15 27 -32 27 -39 0 -7 7 -13 15 -13 8 0 15 -4 15 -10 0 -20 3
-25 22 -38 10 -7 16 -17 13 -22 -3 -5 4 -12 16 -15 11 -4 18 -9 15 -12 -3 -4
2 -12 12 -20 11 -10 12 -12 2 -8 -8 4 -2 -5 13 -19 15 -14 24 -26 20 -26 -4 0
-3 -4 4 -8 6 -4 13 -14 15 -22 2 -8 14 -26 28 -39 14 -13 18 -20 10 -16 -12 5
-11 3 1 -7 9 -7 19 -23 23 -36 4 -12 12 -22 17 -22 6 0 8 -3 6 -7 -3 -5 1 -13
8 -20 23 -21 26 12 4 36 -11 12 -17 21 -14 21 7 0 -26 62 -38 71 -5 3 -8 9 -8
13 3 20 0 26 -9 21 -5 -3 -10 3 -10 15 0 11 -7 23 -15 26 -8 4 -13 9 -10 14 2
4 -5 17 -16 28 -13 15 -15 22 -7 23 7 0 3 4 -10 10 -13 5 -20 13 -17 19 3 5
-2 10 -12 10 -15 0 -16 2 -3 10 13 8 12 10 -3 10 -10 0 -15 5 -12 10 3 6 2 10
-4 10 -5 0 -13 9 -16 20 -3 11 -13 20 -21 20 -13 0 -18 12 -15 32 0 5 -5 7
-12 5 -6 -1 -11 4 -10 11 2 6 -1 12 -6 12 -5 0 -23 14 -40 31 -31 31 -33 49
-5 49 8 0 13 4 11 8 -3 12 59 72 75 72 11 0 11 2 0 9 -10 6 -8 10 8 14 12 3
19 10 15 16 -3 6 -1 11 5 11 6 0 8 4 5 10 -3 5 0 7 8 4 9 -3 17 3 20 16 3 12
10 19 16 15 6 -3 11 1 11 9 0 9 9 21 20 28 11 7 20 18 20 25 0 7 7 13 16 13 8
0 12 5 9 10 -3 6 -1 10 6 10 7 0 9 3 6 7 -4 3 6 17 21 31 15 14 27 30 27 35 0
5 9 15 19 23 11 8 16 14 10 14 -5 0 -1 5 9 11 9 6 15 14 12 19 -3 5 4 11 15
15 11 3 20 15 20 26 0 10 5 19 11 19 5 0 8 4 5 9 -8 12 13 8 42 -7 12 -7 20
-17 17 -23 -5 -8 0 -10 20 -9 10 1 35 -28 35 -41 0 -7 3 -10 6 -6 8 7 53 -36
47 -45 -2 -4 3 -5 11 -2 10 4 16 1 16 -7 0 -14 67 -79 82 -79 5 0 6 -4 3 -10
-3 -6 1 -10 10 -10 9 0 14 -4 11 -9 -3 -5 1 -12 10 -15 8 -3 12 -11 9 -16 -4
-6 -3 -10 2 -9 23 4 35 -2 29 -16 -3 -8 0 -14 7 -12 7 1 11 -4 10 -10 -2 -7 6
-13 17 -13 11 0 19 -3 19 -7 -3 -19 2 -33 12 -33 6 0 17 -7 25 -15 9 -8 12
-15 8 -15 -5 0 9 -16 29 -35 20 -19 31 -35 25 -36 -7 0 -3 -4 10 -9 12 -5 22
-16 22 -25 0 -8 5 -15 10 -15 6 0 10 -6 10 -14 0 -8 9 -18 20 -21 11 -3 20
-11 20 -16 0 -11 12 -27 52 -70 14 -16 22 -29 17 -29 -5 0 0 -9 11 -20 12 -12
18 -25 15 -30 -3 -6 1 -7 9 -4 11 4 16 0 16 -14 0 -11 7 -23 16 -26 9 -4 14
-13 10 -22 -3 -8 -2 -13 3 -10 4 3 14 -6 21 -19 7 -14 17 -25 22 -25 4 0 8 -9
8 -21 0 -11 4 -17 10 -14 6 3 10 -3 10 -13 0 -11 7 -23 16 -26 8 -3 12 -10 9
-16 -3 -5 -1 -10 4 -10 6 0 11 -7 11 -15 0 -8 4 -15 9 -15 5 0 12 -11 15 -25
4 -14 11 -23 16 -20 6 3 7 -1 4 -9 -3 -9 -1 -16 5 -16 6 0 11 -7 11 -15 0 -8
5 -15 11 -15 5 0 7 -4 4 -10 -3 -5 -1 -10 5 -10 6 0 8 -4 5 -10 -3 -5 -1 -10
5 -10 6 0 8 -4 5 -10 -3 -5 -1 -10 5 -10 6 0 8 -5 5 -10 -3 -6 -2 -10 3 -10 6
0 17 -18 26 -40 16 -40 29 -49 41 -30 3 5 0 10 -7 10 -10 0 -10 2 1 9 7 5 9
10 4 12 -11 5 -76 138 -76 156 0 7 -4 10 -9 7 -4 -3 -8 1 -8 9 0 8 -7 20 -15
27 -9 7 -14 19 -11 25 2 7 -4 18 -14 25 -11 8 -17 17 -14 21 2 4 0 10 -6 14
-6 4 -7 11 -4 17 4 6 2 8 -3 5 -6 -4 -16 6 -22 24 -7 21 -15 28 -23 23 -9 -6
-9 -3 1 9 12 15 11 17 -3 17 -8 0 -18 11 -22 25 -3 14 -10 23 -14 20 -7 -4
-21 29 -17 40 1 3 -8 12 -21 20 -12 9 -20 21 -17 26 4 5 1 9 -4 9 -6 0 -11 6
-11 14 0 8 -7 17 -16 20 -8 3 -12 10 -9 16 3 5 -1 10 -10 10 -9 0 -14 4 -11 8
3 5 -4 14 -14 22 -10 8 -17 17 -14 22 3 4 -2 11 -10 14 -9 3 -16 12 -16 20 0
8 -7 14 -16 14 -8 0 -12 5 -9 10 3 6 1 10 -4 10 -6 0 -11 8 -11 17 0 9 -3 14
-6 10 -8 -7 -34 17 -34 32 0 5 -11 18 -25 29 -13 11 -21 22 -18 26 3 3 1 6 -5
6 -7 0 -12 7 -12 16 0 8 -4 12 -10 9 -6 -3 -10 1 -10 10 0 9 -4 13 -10 10 -5
-3 -10 1 -10 9 0 9 -4 16 -10 16 -5 0 -10 7 -10 16 0 8 -4 12 -10 9 -9 -6 -14
8 -11 28 1 5 -3 6 -9 2 -11 -7 -43 19 -34 28 3 3 -4 8 -16 12 -13 4 -19 12
-16 21 3 8 2 13 -2 10 -10 -6 -42 29 -42 46 0 6 -3 8 -6 5 -4 -3 -19 7 -34 23
-15 16 -30 26 -34 22 -4 -3 -4 2 0 12 5 13 4 17 -3 13 -6 -4 -19 5 -29 18 -10
14 -25 25 -32 25 -7 0 -10 5 -7 10 3 6 -1 10 -9 10 -9 0 -16 5 -16 11 0 5 -13
15 -30 20 -23 8 -30 17 -30 37 0 14 3 22 6 19 10 -10 65 83 58 95 -4 6 -3 8 3
5 6 -4 23 20 39 53 16 33 32 60 36 60 4 0 8 5 8 11 0 5 -6 7 -12 4 -7 -4 -4 2
7 12 11 10 20 23 20 28 1 6 16 42 34 80 19 39 34 78 33 87 0 10 3 18 9 18 5 0
9 7 9 15 0 8 4 15 9 15 6 0 8 9 6 20 -2 11 1 20 6 20 6 0 8 4 5 9 -4 5 0 12 6
14 10 4 10 6 1 6 -8 1 -6 12 7 34 11 18 21 42 23 52 1 11 7 26 11 34 6 9 5 12
-2 7 -6 -3 -3 8 6 26 15 31 20 51 23 88 1 8 7 21 13 29 9 12 8 13 -4 6 -12 -7
-13 -6 -4 6 6 8 14 28 18 44 3 17 8 40 11 53 3 12 7 34 10 48 2 15 7 29 9 32
3 3 0 12 -7 20 -10 13 -9 14 1 8 11 -6 13 0 11 25 -1 19 2 42 6 51 4 9 4 21 1
27 -4 5 -2 12 3 16 5 3 8 14 6 25 -2 11 0 20 4 20 4 0 5 14 3 31 -3 20 0 34 9
40 9 5 10 9 2 9 -12 0 -12 17 0 37 4 6 2 13 -5 15 -7 3 -8 9 -3 19 12 19 15
39 6 39 -9 0 -8 31 2 47 4 6 3 14 -3 18 -6 4 -7 12 -3 18 11 17 10 176 0 170
-5 -3 -3 5 4 18 7 13 12 24 12 24 0 0 -5 10 -12 23 -7 13 -8 22 -2 22 7 0 7 9
1 26 -13 32 -13 37 1 28 8 -4 8 -1 2 12 -6 11 -11 39 -12 64 -1 25 -4 59 -7
75 -7 35 -13 78 -17 121 -2 17 -7 36 -11 42 -4 7 -2 12 5 12 8 0 8 4 1 13 -5
6 -9 28 -8 49 0 20 -2 34 -6 31 -5 -2 -8 4 -9 14 0 10 -2 27 -5 38 -2 11 -5
32 -7 47 -1 16 -5 28 -9 28 -4 0 -5 9 -3 20 2 11 -2 20 -8 20 -7 0 -6 4 3 10
9 6 10 10 3 10 -6 0 -10 9 -8 20 2 11 0 22 -6 25 -5 4 -9 17 -9 30 0 13 -4 26
-8 29 -4 2 -8 19 -7 38 0 18 -6 39 -12 46 -7 7 -13 27 -13 43 0 16 -4 29 -9
29 -6 0 -8 9 -6 20 2 11 -1 20 -6 20 -6 0 -8 4 -5 8 2 4 -4 35 -15 67 -11 33
-21 68 -22 77 -2 10 -6 21 -10 24 -4 4 -7 18 -7 31 0 15 -4 22 -11 17 -8 -4
-9 0 -4 15 3 12 2 21 -3 21 -6 0 -9 8 -7 18 1 9 -4 29 -12 45 -7 15 -11 27 -7
27 4 0 1 6 -5 14 -6 7 -12 25 -13 40 -1 14 -7 26 -12 26 -5 0 -7 3 -3 6 3 4 0
22 -8 41 -8 20 -15 44 -15 54 0 11 -5 19 -12 19 -6 0 -9 3 -5 6 3 3 1 18 -5
33 -5 14 -12 40 -15 56 -3 17 -8 32 -12 35 -4 3 -8 16 -9 30 0 14 -6 26 -11
28 -5 2 -8 9 -5 16 3 8 -2 21 -11 30 -10 10 -12 16 -4 16 9 0 8 4 -1 15 -7 8
-10 24 -7 35 3 11 2 18 -3 15 -7 -4 -17 36 -21 85 -1 8 -6 21 -12 28 -6 8 -6
12 2 12 8 0 7 6 -3 16 -18 17 -21 28 -6 19 6 -3 10 -2 10 4 0 5 -6 12 -12 14
-10 4 -10 6 0 6 7 1 10 6 6 12 -4 7 -8 26 -10 43 -2 17 -6 45 -8 61 -6 39 -7
319 -2 370 3 22 8 72 11 110 4 39 9 73 11 77 2 4 0 9 -6 13 -6 4 -7 12 -3 18
9 15 13 32 18 82 2 22 4 40 5 40 2 0 4 14 15 105 4 36 8 75 9 88 0 12 5 22 11
22 5 0 4 4 -4 9 -9 6 -10 14 -5 22 5 8 10 28 10 44 1 17 5 44 9 60 10 44 12
66 14 108 1 28 4 36 14 31 8 -6 8 -3 -1 9 -9 10 -11 24 -6 39 4 13 8 48 9 79
1 30 5 61 9 67 4 7 2 12 -6 12 -9 0 -10 2 -1 8 6 4 12 42 14 92 2 47 5 89 7
94 3 5 5 48 5 97 0 56 4 86 10 82 6 -4 7 -1 1 8 -13 21 -14 110 0 102 8 -5 8
-3 0 8 -6 8 -11 50 -11 94 -1 69 -4 132 -18 293 -1 18 -4 35 -7 37 -2 3 -3 23
-2 45 1 24 -2 38 -8 34 -6 -4 -5 3 1 15 7 11 8 21 3 21 -4 0 -8 10 -8 23 -1
29 -13 112 -23 159 -5 20 -6 39 -3 43 3 3 0 5 -8 5 -10 0 -10 3 0 15 9 11 9
15 1 15 -7 0 -9 5 -6 10 3 6 3 15 -1 22 -8 13 -12 68 -4 68 3 0 6 12 6 28 3
38 11 72 24 86 5 7 7 16 4 19 -4 4 0 17 8 29 7 13 13 35 13 51 -1 15 3 27 7
27 4 0 8 9 8 20 0 11 4 20 9 20 4 0 7 11 6 25 -2 14 0 25 4 25 4 0 8 6 8 13 2
43 14 92 22 95 5 2 7 10 4 18 -3 8 0 21 7 29 9 11 9 15 1 15 -8 0 -9 6 -3 18
5 9 8 27 7 40 -1 12 3 22 9 22 6 0 4 5 -4 10 -8 5 -10 10 -5 10 12 0 14 348 2
367 -4 6 -3 14 3 18 6 4 7 12 3 18 -4 6 -7 29 -6 49 1 23 -3 38 -10 38 -7 0
-6 5 3 10 9 6 11 13 5 18 -5 4 -10 30 -10 57 0 28 -4 56 -10 64 -5 8 -9 16 -7
18 2 2 0 34 -4 71 -9 88 -8 85 -17 100 -5 7 -3 12 3 12 6 0 8 5 3 13 -4 6 -8
18 -9 25 -3 20 -13 118 -20 202 -8 90 -11 580 -4 580 3 0 6 75 8 168 2 92 5
201 6 242 2 45 -1 81 -8 89 -8 11 -8 13 1 8 9 -6 12 4 13 35 3 366 2 585 -5
683 -4 66 -8 131 -8 145 -1 14 -6 28 -12 32 -6 5 -4 8 5 8 13 0 13 1 0 10 -11
7 -11 10 -2 10 9 0 10 6 4 18 -4 9 -8 24 -7 32 0 8 -4 18 -10 22 -6 5 -6 8 2
8 9 0 10 7 3 26 -6 14 -6 23 -1 20 9 -6 9 7 -2 34 -3 8 -9 40 -12 70 -6 59
-11 92 -15 100 -1 3 -1 15 0 28 1 13 -4 30 -10 38 -10 11 -10 14 1 14 9 0 10
3 3 8 -6 4 -11 18 -11 32 0 14 -4 33 -8 43 -4 9 -5 24 -1 32 3 8 1 15 -4 15
-6 0 -10 11 -10 25 0 14 -6 25 -12 25 -10 0 -9 3 1 9 8 5 9 11 3 15 -6 3 -9
17 -7 31 1 14 -1 25 -5 25 -3 0 -6 15 -5 34 0 19 -2 33 -6 30 -9 -5 -20 56
-12 69 3 6 1 7 -6 3 -8 -5 -10 0 -7 18 3 17 1 24 -5 20 -6 -3 -10 2 -8 12 1
11 -1 28 -5 39 -30 81 -33 95 -24 89 6 -4 6 1 -1 13 -6 11 -7 23 -4 27 3 3 1
6 -5 6 -7 0 -12 9 -12 20 0 11 -4 28 -9 38 -5 9 -15 37 -22 62 -7 25 -19 54
-26 65 -15 23 -17 39 -3 30 6 -3 7 1 4 9 -3 9 -10 16 -15 16 -5 0 -9 9 -9 19
0 11 -6 26 -13 33 -8 7 -13 21 -11 31 1 9 -2 17 -8 17 -6 0 -7 7 -4 15 3 9 -1
18 -9 21 -8 4 -13 10 -10 14 3 5 -1 14 -8 22 -7 7 -12 20 -12 28 0 8 -5 20
-13 25 -7 6 -14 17 -16 25 -6 29 -43 100 -49 94 -4 -4 -4 3 -2 15 3 14 0 19
-7 15 -8 -5 -9 -1 -5 10 4 10 3 15 -3 11 -5 -3 -12 6 -16 20 -3 14 -14 30 -23
35 -9 5 -11 10 -4 10 7 0 1 12 -12 26 -14 15 -23 29 -21 33 6 9 -21 31 -28 23
-4 -3 -4 1 -1 10 4 10 -1 24 -12 35 -36 38 -58 66 -44 58 10 -5 12 -4 7 3 -4
7 -14 12 -22 12 -8 0 -12 5 -9 10 3 6 1 10 -6 10 -7 0 -9 3 -6 6 3 4 -7 19
-23 34 -17 16 -30 30 -30 33 0 14 -64 75 -73 70 -6 -3 -8 -2 -5 3 3 5 -12 26
-34 47 -21 20 -38 35 -38 32 0 -3 -6 0 -14 7 -8 7 -12 16 -9 21 2 4 -1 7 -7 7
-6 0 -27 12 -45 26 -21 16 -39 23 -47 18 -10 -6 -10 -4 0 9 12 14 11 16 -6 12
-12 -2 -23 3 -26 11 -3 9 -10 12 -16 9 -5 -3 -10 -1 -10 4 0 6 -6 11 -14 11
-7 0 -19 7 -26 15 -7 8 -16 12 -22 9 -5 -3 -15 0 -23 6 -8 6 -19 9 -24 6 -5
-4 -12 -2 -16 4 -3 5 -17 10 -31 10 -14 0 -23 4 -20 8 3 5 -9 6 -26 4 -19 -3
-33 1 -39 9 -7 11 -9 11 -9 1 0 -8 -5 -10 -12 -6 -19 12 -48 12 -48 0 0 -6 -4
-5 -9 2 -4 8 -12 14 -16 14 -4 0 -12 -6 -16 -14 -7 -11 -9 -11 -9 1 0 10 -3
11 -13 2 -10 -8 -17 -7 -25 1 -9 9 -12 9 -12 -2 0 -13 -2 -13 -10 0 -7 12 -10
12 -10 1z m-10025 -1539 c-3 -3 -11 0 -18 7 -9 10 -8 11 6 5 10 -3 15 -9 12
-12z m215 -12696 c0 -2 -8 -10 -17 -17 -16 -13 -17 -12 -4 4 13 16 21 21 21
13z"/>
<path d="M14452 1418 c2 -6 10 -13 16 -14 7 -1 8 0 2 3 -5 2 -8 9 -4 14 3 5 0
9 -6 9 -7 0 -10 -5 -8 -12z"/>
</g>
</svg>
