<?xml version="1.0" encoding="UTF-8"?>
<!DOCTYPE svg PUBLIC "-//W3C//DTD SVG 1.1//EN" "http://www.w3.org/Graphics/SVG/1.1/DTD/svg11.dtd">
<svg xmlns="http://www.w3.org/2000/svg" version="1.1" width="512px" height="512px" style="shape-rendering:geometricPrecision; text-rendering:geometricPrecision; image-rendering:optimizeQuality; fill-rule:evenodd; clip-rule:evenodd" xmlns:xlink="http://www.w3.org/1999/xlink">
<g><path style="opacity:0.985" fill="#020101" d="M 456.5,414.5 C 454.913,410.317 452.579,406.65 449.5,403.5C 444.644,396.133 438.81,389.466 432,383.5C 427.51,387.724 424.344,392.39 422.5,397.5C 425.774,401.275 428.441,405.441 430.5,410C 429.045,412.981 427.378,413.148 425.5,410.5C 426.932,408.703 426.599,407.37 424.5,406.5C 422.993,403.497 420.993,400.83 418.5,398.5C 418.692,399.962 418.359,401.628 417.5,403.5C 416.167,403.833 416.167,404.167 417.5,404.5C 417.649,405.552 417.483,406.552 417,407.5C 415.326,406.324 413.826,404.99 412.5,403.5C 403.43,409.366 394.096,414.7 384.5,419.5C 379.177,421.493 373.844,423.493 368.5,425.5C 368.082,426.222 367.416,426.722 366.5,427C 380.731,440.888 393.064,456.221 403.5,473C 401.633,473.711 400.133,473.211 399,471.5C 388.882,455.704 376.882,441.371 363,428.5C 356.044,431.961 349.21,435.627 342.5,439.5C 341.691,438.531 340.691,437.698 339.5,437C 331.994,434.944 324.827,432.111 318,428.5C 316.941,428.63 316.108,429.13 315.5,430C 316.672,430.419 317.672,431.085 318.5,432C 316.331,432.429 314.331,431.929 312.5,430.5C 308.587,431.062 307.921,432.562 310.5,435C 306.946,434.13 303.779,432.297 301,429.5C 300.952,431.544 301.452,433.544 302.5,435.5C 302.167,435.833 301.833,436.167 301.5,436.5C 299.144,434.31 296.644,432.31 294,430.5C 294,432.5 294,434.5 294,436.5C 291.372,434.874 289.039,432.874 287,430.5C 286.667,431.833 286.333,433.167 286,434.5C 284.333,432.833 282.667,431.167 281,429.5C 280.804,431.286 279.971,432.619 278.5,433.5C 276.681,431.872 275.347,429.872 274.5,427.5C 271.868,431.734 268.534,435.401 264.5,438.5C 264.167,438.333 263.833,438.167 263.5,438C 265.332,436.511 266.165,434.678 266,432.5C 263.144,434.672 259.978,435.839 256.5,436C 258.167,434.333 259.833,432.667 261.5,431C 261.167,430.833 260.833,430.667 260.5,430.5C 257.26,434.035 253.427,436.702 249,438.5C 248.333,437.833 247.667,437.167 247,436.5C 245.715,436.95 244.548,437.617 243.5,438.5C 242.672,437.585 241.672,436.919 240.5,436.5C 238.527,437.331 236.527,437.498 234.5,437C 235.711,436.107 235.711,435.274 234.5,434.5C 232.167,435.833 229.833,437.167 227.5,438.5C 227.5,437.5 227.5,436.5 227.5,435.5C 226.522,435.977 225.689,436.643 225,437.5C 224.692,436.692 224.192,436.025 223.5,435.5C 221.172,436.217 219.005,437.217 217,438.5C 216.5,438.167 216,437.833 215.5,437.5C 216.428,436.232 216.595,434.899 216,433.5C 214.215,434.24 212.382,434.907 210.5,435.5C 209.167,434.167 207.833,432.833 206.5,431.5C 204.5,433.167 202.5,434.833 200.5,436.5C 199.719,435.263 198.719,434.263 197.5,433.5C 193.876,434.147 190.21,434.314 186.5,434C 185.5,436.091 186.167,437.757 188.5,439C 192.264,439.852 195.597,441.352 198.5,443.5C 193.427,442.134 188.427,440.468 183.5,438.5C 177.819,446.861 173.486,455.861 170.5,465.5C 169.5,465.5 168.5,465.5 167.5,465.5C 170.117,455.929 174.117,446.929 179.5,438.5C 179.376,437.893 179.043,437.56 178.5,437.5C 169.376,433.954 160.21,430.287 151,426.5C 149.579,428.405 148.412,430.405 147.5,432.5C 146.833,432.5 146.5,432.833 146.5,433.5C 144.012,436.466 142.012,439.799 140.5,443.5C 137.67,447.827 135.337,452.493 133.5,457.5C 133.846,458.696 134.346,458.696 135,457.5C 135.024,460.302 133.524,461.636 130.5,461.5C 133.878,448.576 139.545,436.743 147.5,426C 142.446,422.719 137.279,419.553 132,416.5C 131.02,417.981 129.853,419.315 128.5,420.5C 127.808,419.975 127.308,419.308 127,418.5C 122.938,422.731 118.771,426.731 114.5,430.5C 113.833,430.5 113.5,430.833 113.5,431.5C 112.833,431.5 112.5,431.833 112.5,432.5C 111.833,432.5 111.5,432.833 111.5,433.5C 108.752,433.598 108.086,432.598 109.5,430.5C 115.33,424.838 121.33,419.338 127.5,414C 100.249,395.005 85.9159,368.838 84.5,335.5C 86.2815,318.81 88.2815,302.144 90.5,285.5C 88.0283,268.207 86.8616,250.874 87,233.5C 82.6849,225.554 79.3516,217.221 77,208.5C 76.7239,186.843 73.2239,165.843 66.5,145.5C 65.5281,139.808 64.3615,134.141 63,128.5C 62.361,117.342 61.1944,106.342 59.5,95.5C 60.6474,86.2519 61.4808,86.2519 62,95.5C 62.5116,90.7753 63.3449,86.1087 64.5,81.5C 64.1822,80.3527 63.5156,79.5194 62.5,79C 63.3617,76.2656 64.195,76.0989 65,78.5C 69.8221,58.507 81.9888,51.6736 101.5,58C 106.27,61.2253 111.27,64.2253 116.5,67C 121.377,71.7882 126.711,76.1215 132.5,80C 138.35,86.5856 144.517,92.7522 151,98.5C 161.218,111.385 173.051,122.551 186.5,132C 188.5,132.667 190.5,133.333 192.5,134C 214.328,130.383 236.328,127.717 258.5,126C 274.175,125.646 289.842,125.646 305.5,126C 311.124,124.044 315.957,120.877 320,116.5C 324.483,110.526 328.317,104.193 331.5,97.5C 334.323,93.8638 336.656,89.8638 338.5,85.5C 341.323,81.8638 343.656,77.8638 345.5,73.5C 346.401,72.7095 347.068,71.7095 347.5,70.5C 350.221,67.106 352.554,63.4394 354.5,59.5C 356.063,58.0552 357.396,56.3885 358.5,54.5C 360.218,52.7772 361.551,50.7772 362.5,48.5C 363.167,48.5 363.5,48.1667 363.5,47.5C 364.167,47.5 364.5,47.1667 364.5,46.5C 365.167,46.5 365.5,46.1667 365.5,45.5C 371.01,38.8248 377.344,32.9915 384.5,28C 386.5,27.3333 388.5,26.6667 390.5,26C 395.475,25.668 400.308,25.5013 405,25.5C 407.921,27.3771 410.754,29.3771 413.5,31.5C 425.626,47.6806 432.793,66.0139 435,86.5C 435.919,97.2066 436.586,107.873 437,118.5C 436.667,117.833 436.333,117.167 436,116.5C 435.177,134.71 435.677,152.876 437.5,171C 437.883,178.21 436.883,185.21 434.5,192C 434.645,192.772 434.978,193.439 435.5,194C 434.572,194.388 433.905,195.055 433.5,196C 435.099,204.251 436.099,212.584 436.5,221C 435.409,236.396 433.742,251.729 431.5,267C 432.041,270.828 432.541,274.661 433,278.5C 441.048,299.924 445.715,321.258 447,342.5C 446.667,341.5 446.333,340.5 446,339.5C 445.414,353.925 441.581,367.425 434.5,380C 445.236,390.248 453.903,402.081 460.5,415.5C 460.167,416.167 459.833,416.833 459.5,417.5C 458.265,416.66 457.265,415.66 456.5,414.5 Z"/></g>
<g><path style="opacity:0.006" fill="#070607" d="M 365.5,45.5 C 364.833,45.5 364.5,45.8333 364.5,46.5C 363.833,46.5 363.5,46.8333 363.5,47.5C 362.833,47.5 362.5,47.8333 362.5,48.5C 361.493,46.732 362.159,45.3987 364.5,44.5C 365.107,44.6236 365.44,44.9569 365.5,45.5 Z"/></g>
<g><path style="opacity:0.004" fill="#060506" d="M 358.5,54.5 C 356.027,54.0527 355.86,53.0527 358,51.5C 358.483,52.448 358.649,53.448 358.5,54.5 Z"/></g>
<g><path style="opacity:0.004" fill="#050605" d="M 354.5,59.5 C 353.833,58.1667 353.833,58.1667 354.5,59.5 Z"/></g>
<g><path style="opacity:1" fill="#503937" d="M 85.5,67.5 C 93.2857,67.7229 100.286,70.2229 106.5,75C 122.445,88.608 136.612,103.775 149,120.5C 158.952,135.609 169.452,150.276 180.5,164.5C 180.333,165.167 180.167,165.833 180,166.5C 176.741,160.996 175.075,161.663 175,168.5C 174.107,167.289 173.274,167.289 172.5,168.5C 173.645,169.891 173.645,171.224 172.5,172.5C 170.511,172.521 168.511,172.521 166.5,172.5C 167.986,177.486 167.153,177.819 164,173.5C 163.922,175.657 163.755,177.657 163.5,179.5C 160.335,178.347 157.669,176.847 155.5,175C 157.088,176.987 157.921,179.154 158,181.5C 156.829,179.384 155.329,178.718 153.5,179.5C 154.747,181.497 155.581,183.497 156,185.5C 154.833,184.333 153.667,183.167 152.5,182C 151.668,181.312 151.002,181.479 150.5,182.5C 151.833,185.167 153.167,187.833 154.5,190.5C 152.671,191.282 151.171,190.616 150,188.5C 147.398,188.899 144.898,188.899 142.5,188.5C 143.648,190.149 144.981,191.649 146.5,193C 144.387,194.984 143.22,197.484 143,200.5C 142.667,200.167 142.333,199.833 142,199.5C 141.578,202.236 141.578,204.902 142,207.5C 138.79,200.63 137.957,200.963 139.5,208.5C 139.263,211.063 138.763,211.063 138,208.5C 137.54,211.304 138.04,213.971 139.5,216.5C 139.167,216.833 138.833,217.167 138.5,217.5C 137.185,215.684 135.685,214.017 134,212.5C 133.607,217.201 133.607,221.868 134,226.5C 132.587,223.339 130.92,220.339 129,217.5C 129.278,221.139 129.278,224.806 129,228.5C 128.71,226.956 128.044,225.623 127,224.5C 125.841,229.798 125.007,235.131 124.5,240.5C 107.35,239.83 96.517,231.164 92,214.5C 91.6667,205.833 91.3333,197.167 91,188.5C 72.9437,158.553 66.277,126.219 71,91.5C 71.583,80.6249 76.4163,72.6249 85.5,67.5 Z"/></g>
<g><path style="opacity:0.004" fill="#060606" d="M 347.5,70.5 C 344.999,70.4891 344.832,69.8224 347,68.5C 347.464,69.0944 347.631,69.7611 347.5,70.5 Z"/></g>
<g><path style="opacity:0.004" fill="#060606" d="M 345.5,73.5 C 344.475,73.1034 344.308,72.4368 345,71.5C 345.464,72.0944 345.631,72.7611 345.5,73.5 Z"/></g>
<g><path style="opacity:0.004" fill="#050605" d="M 64.5,73.5 C 65.8333,74.1667 65.8333,74.1667 64.5,73.5 Z"/></g>
<g><path style="opacity:0.004" fill="#060606" d="M 338.5,85.5 C 336.027,85.0527 335.86,84.0527 338,82.5C 338.483,83.448 338.649,84.448 338.5,85.5 Z"/></g>
<g><path style="opacity:1" fill="#8b6e6c" d="M 88.5,83.5 C 103.116,83.3083 115.116,88.8083 124.5,100C 123.167,100.333 121.833,100.667 120.5,101C 123.131,102.327 125.798,103.66 128.5,105C 123.101,104.584 117.767,103.918 112.5,103C 114.376,104.017 116.376,104.851 118.5,105.5C 116.922,106.298 115.256,106.798 113.5,107C 114.624,107.839 115.291,109.006 115.5,110.5C 114.79,113.799 114.457,117.133 114.5,120.5C 106.459,120.336 98.4585,120.836 90.5,122C 102.134,123.135 113.801,123.801 125.5,124C 118.095,125.351 110.762,127.018 103.5,129C 111.324,129.582 118.99,130.915 126.5,133C 116.953,132.924 107.62,134.258 98.5,137C 113.214,136.483 127.547,138.483 141.5,143C 136.462,145.398 131.128,146.731 125.5,147C 127.5,147.333 129.5,147.667 131.5,148C 133.228,151.001 135.561,153.334 138.5,155C 137.5,155.333 136.5,155.667 135.5,156C 139.751,156.726 143.751,158.059 147.5,160C 140.833,159.667 134.167,159.333 127.5,159C 131.789,160.654 136.122,162.321 140.5,164C 134.181,163.336 127.847,162.336 121.5,161C 119.167,160.333 116.833,160.333 114.5,161C 119.363,163.066 124.363,164.732 129.5,166C 128.366,167.016 128.699,167.683 130.5,168C 128.5,168.333 126.5,168.667 124.5,169C 128.132,170.659 131.799,172.326 135.5,174C 133.189,173.845 130.856,173.845 128.5,174C 132.768,177.477 132.102,179.477 126.5,180C 131.5,184.828 134.833,190.661 136.5,197.5C 134.418,197.528 132.584,196.861 131,195.5C 130.667,196.5 130.333,197.5 130,198.5C 124.167,194 118.333,189.5 112.5,185C 109.123,184.631 105.79,184.631 102.5,185C 97.5579,180.286 93.7246,174.786 91,168.5C 80.8543,143.668 77.8543,118.001 82,91.5C 83.3046,88.0386 85.4713,85.372 88.5,83.5 Z"/></g>
<g><path style="opacity:1" fill="#503836" d="M 355.5,171.5 C 354.691,169.987 354.524,168.32 355,166.5C 354,167.833 353,169.167 352,170.5C 352,168.5 352,166.5 352,164.5C 351.667,164.833 351.333,165.167 351,165.5C 349.956,164.377 349.29,163.044 349,161.5C 348.283,162.044 347.783,162.711 347.5,163.5C 345.288,168.971 342.788,174.305 340,179.5C 339.51,178.207 339.343,176.873 339.5,175.5C 341.011,171.849 342.677,168.182 344.5,164.5C 343.289,163.28 343.289,162.113 344.5,161C 342.924,161.152 341.591,161.985 340.5,163.5C 340.113,161.269 339.947,158.936 340,156.5C 339.841,158.343 339.341,159.009 338.5,158.5C 339.008,155.824 339.175,153.157 339,150.5C 336.868,157.895 334.535,165.228 332,172.5C 333.333,165.167 334.667,157.833 336,150.5C 333.224,157.269 331.224,164.269 330,171.5C 329.399,169.863 328.899,168.197 328.5,166.5C 330.078,163.283 330.911,159.949 331,156.5C 330,158.5 329,160.5 328,162.5C 333.504,144.764 339.504,126.098 346,106.5C 353.721,85.0563 364.054,65.0563 377,46.5C 387.014,33.6056 397.347,33.2723 408,45.5C 429.338,80.0238 433.171,116.357 419.5,154.5C 421.314,162.755 422.647,171.088 423.5,179.5C 423.515,191.303 419.181,201.136 410.5,209C 407.539,210.879 404.373,212.379 401,213.5C 400.055,213.095 399.388,212.428 399,211.5C 398.667,211.833 398.333,212.167 398,212.5C 396.245,211.33 395.245,209.663 395,207.5C 394.667,207.833 394.333,208.167 394,208.5C 393,204.167 392,199.833 391,195.5C 390.178,197.788 389.511,200.122 389,202.5C 388.667,199.833 388.333,197.167 388,194.5C 387.667,194.833 387.333,195.167 387,195.5C 386.667,194.5 386.333,193.5 386,192.5C 385.08,195.101 384.413,197.768 384,200.5C 383.667,197.167 383.333,193.833 383,190.5C 382.226,194.147 381.559,197.814 381,201.5C 380.667,196.833 380.333,192.167 380,187.5C 379.115,190 377.948,192.333 376.5,194.5C 376.349,189.12 375.849,183.787 375,178.5C 373.577,180.345 372.41,182.345 371.5,184.5C 371.167,183.5 370.833,182.5 370.5,181.5C 371.189,178.442 371.689,175.442 372,172.5C 369.774,177.711 367.108,182.045 364,185.5C 365.532,179.898 366.866,174.231 368,168.5C 365.806,171.554 364.139,174.888 363,178.5C 361.339,174.892 361.005,171.225 362,167.5C 360.201,171.883 358.201,176.217 356,180.5C 356.143,177.837 356.643,175.171 357.5,172.5C 357.608,169.134 356.942,168.8 355.5,171.5 Z"/></g>
<g><path style="opacity:1" fill="#725450" d="M 370.5,87.5 C 371.209,88.404 372.209,88.7373 373.5,88.5C 373.291,90.7144 374.124,92.381 376,93.5C 378.453,92.5071 380.953,92.3405 383.5,93C 379.535,94.1265 375.535,95.1265 371.5,96C 377.989,96.6824 377.989,97.5157 371.5,98.5C 370.737,97.7321 369.737,97.2321 368.5,97C 369.167,96.6667 369.833,96.3333 370.5,96C 367.83,95.4574 365.33,95.9574 363,97.5C 361.5,96.5 360,95.5 358.5,94.5C 361.868,91.1472 365.868,88.8139 370.5,87.5 Z"/></g>
<g><path style="opacity:1" fill="#8c6e6c" d="M 362.5,135.5 C 365.879,134.394 369.213,133.227 372.5,132C 368.191,132.492 363.857,132.825 359.5,133C 365.087,130.038 370.754,127.372 376.5,125C 373.563,124.639 370.73,125.139 368,126.5C 367.5,126.333 367,126.167 366.5,126C 368.332,125.252 369.999,124.252 371.5,123C 368.28,122.843 365.113,123.343 362,124.5C 360.93,124.472 360.097,124.139 359.5,123.5C 366.938,118.98 374.605,115.147 382.5,112C 376.462,111.529 370.462,111.529 364.5,112C 369.528,110.771 374.194,108.771 378.5,106C 385.53,104.44 392.53,102.773 399.5,101C 387.713,101.356 376.046,102.189 364.5,103.5C 363.304,103.154 363.304,102.654 364.5,102C 366.994,100.968 369.328,99.8017 371.5,98.5C 377.989,97.5157 377.989,96.6824 371.5,96C 375.535,95.1265 379.535,94.1265 383.5,93C 380.953,92.3405 378.453,92.5071 376,93.5C 374.124,92.381 373.291,90.7144 373.5,88.5C 372.209,88.7373 371.209,88.404 370.5,87.5C 367.961,86.0932 368.294,84.9265 371.5,84C 369.089,84.0519 366.756,84.3853 364.5,85C 367.04,83.5688 369.373,81.9022 371.5,80C 371.167,79.5 370.833,79 370.5,78.5C 369.549,79.3256 368.549,79.4922 367.5,79C 370.166,76.6647 373.166,74.8314 376.5,73.5C 377.521,72.9984 377.688,72.3317 377,71.5C 376.282,72.4506 375.449,72.6172 374.5,72C 377.5,69.6667 380.5,67.3333 383.5,65C 382.833,64.6667 382.167,64.3333 381.5,64C 385.438,60.2197 389.771,57.0531 394.5,54.5C 396.029,54.5288 397.196,55.1955 398,56.5C 413.304,80.3256 419.637,106.326 417,134.5C 416.341,142.822 413.174,149.989 407.5,156C 398.689,158.322 391.189,162.822 385,169.5C 385.893,166.564 387.726,164.064 390.5,162C 388.117,162.446 385.95,163.612 384,165.5C 383.333,164.5 383.333,163.5 384,162.5C 385.833,159.333 388.333,156.833 391.5,155C 389.544,155.222 387.71,156.055 386,157.5C 385.86,155.744 386.36,154.078 387.5,152.5C 386.833,152.167 386.167,151.833 385.5,151.5C 383.147,152.351 380.813,152.851 378.5,153C 384.419,148.374 391.086,145.374 398.5,144C 394.38,143.693 390.38,144.36 386.5,146C 377.063,150.13 368.563,155.63 361,162.5C 363.04,155.941 366.54,150.108 371.5,145C 370.833,144.667 370.167,144.333 369.5,144C 371.156,142.171 373.156,140.837 375.5,140C 369.797,139.953 364.464,141.453 359.5,144.5C 358.167,143.833 358.167,143.167 359.5,142.5C 373.018,135.542 372.684,134.042 358.5,138C 359.693,136.905 361.027,136.072 362.5,135.5 Z"/></g>
<g><path style="opacity:0.008" fill="#060606" d="M 331.5,97.5 C 328.999,97.4891 328.832,96.8224 331,95.5C 331.464,96.0944 331.631,96.7611 331.5,97.5 Z"/></g>
<g><path style="opacity:0.004" fill="#060606" d="M 327.5,100.5 C 328.833,101.167 328.833,101.167 327.5,100.5 Z"/></g>
<g><path style="opacity:0.004" fill="#060606" d="M 436.5,120.5 C 437.598,121.601 437.765,122.934 437,124.5C 436.51,123.207 436.343,121.873 436.5,120.5 Z"/></g>
<g><path style="opacity:1" fill="#24272e" d="M 288.5,138.5 C 284.249,137.73 281.749,139.397 281,143.5C 280.67,139.306 281.503,135.306 283.5,131.5C 283.167,131.167 282.833,130.833 282.5,130.5C 277.044,135.654 273.544,141.987 272,149.5C 271.121,146.182 270.287,142.848 269.5,139.5C 267.985,141.547 267.151,143.881 267,146.5C 266.798,144.744 266.298,143.078 265.5,141.5C 264.478,144.441 263.645,147.441 263,150.5C 262.79,144.769 262.124,139.103 261,133.5C 260.496,140.212 259.662,146.878 258.5,153.5C 256.134,140.391 254.634,140.391 254,153.5C 253.042,150.426 251.875,147.426 250.5,144.5C 249.836,148.702 248.669,152.702 247,156.5C 243.084,151.004 239.418,145.337 236,139.5C 234.956,140.623 234.29,141.956 234,143.5C 233.085,142.672 232.419,141.672 232,140.5C 232.155,142.811 232.155,145.144 232,147.5C 231,146.167 230,146.167 229,147.5C 228.318,149.938 228.818,152.105 230.5,154C 229.667,155.784 228.667,155.784 227.5,154C 223.848,153.501 220.182,153.335 216.5,153.5C 211.484,148.125 208.151,141.792 206.5,134.5C 234.508,128.961 262.841,126.961 291.5,128.5C 290.245,131.792 289.245,135.125 288.5,138.5 Z"/></g>
<g><path style="opacity:1" fill="#191a1e" d="M 288.5,138.5 C 285.354,148.773 281.521,158.773 277,168.5C 276.641,165.456 275.974,165.122 275,167.5C 274.667,165.167 274.333,162.833 274,160.5C 272.164,165.011 270.83,169.677 270,174.5C 269.586,174.043 269.086,173.709 268.5,173.5C 267.515,175.772 266.681,178.105 266,180.5C 263.491,173.114 262.157,165.447 262,157.5C 259.969,165.631 257.636,173.631 255,181.5C 253.197,175.758 251.197,170.091 249,164.5C 248.667,168.833 248.333,173.167 248,177.5C 247.444,175.405 246.944,175.238 246.5,177C 247.722,183.967 247.222,184.134 245,177.5C 244.667,179.167 244.333,180.833 244,182.5C 243,182.167 242,181.833 241,181.5C 238.852,176.711 236.519,172.044 234,167.5C 232.775,171.18 231.942,170.847 231.5,166.5C 229.738,166.357 228.071,166.691 226.5,167.5C 222.657,163.127 219.323,158.46 216.5,153.5C 220.182,153.335 223.848,153.501 227.5,154C 228.667,155.784 229.667,155.784 230.5,154C 228.818,152.105 228.318,149.938 229,147.5C 230,146.167 231,146.167 232,147.5C 232.155,145.144 232.155,142.811 232,140.5C 232.419,141.672 233.085,142.672 234,143.5C 234.29,141.956 234.956,140.623 236,139.5C 239.418,145.337 243.084,151.004 247,156.5C 248.669,152.702 249.836,148.702 250.5,144.5C 251.875,147.426 253.042,150.426 254,153.5C 254.634,140.391 256.134,140.391 258.5,153.5C 259.662,146.878 260.496,140.212 261,133.5C 262.124,139.103 262.79,144.769 263,150.5C 263.645,147.441 264.478,144.441 265.5,141.5C 266.298,143.078 266.798,144.744 267,146.5C 267.151,143.881 267.985,141.547 269.5,139.5C 270.287,142.848 271.121,146.182 272,149.5C 273.544,141.987 277.044,135.654 282.5,130.5C 282.833,130.833 283.167,131.167 283.5,131.5C 281.503,135.306 280.67,139.306 281,143.5C 281.749,139.397 284.249,137.73 288.5,138.5 Z"/></g>
<g><path style="opacity:1" fill="#694d4b" d="M 362.5,135.5 C 361.048,134.698 359.382,134.198 357.5,134C 358.696,133.346 358.696,132.846 357.5,132.5C 356.549,133.326 355.549,133.492 354.5,133C 358.167,130.667 361.833,128.333 365.5,126C 362.833,125.667 360.167,125.333 357.5,125C 358.044,124.283 358.711,123.783 359.5,123.5C 360.097,124.139 360.93,124.472 362,124.5C 365.113,123.343 368.28,122.843 371.5,123C 369.999,124.252 368.332,125.252 366.5,126C 367,126.167 367.5,126.333 368,126.5C 370.73,125.139 373.563,124.639 376.5,125C 370.754,127.372 365.087,130.038 359.5,133C 363.857,132.825 368.191,132.492 372.5,132C 369.213,133.227 365.879,134.394 362.5,135.5 Z"/></g>
<g><path style="opacity:0.004" fill="#060606" d="M 66.5,145.5 C 66.6495,146.552 66.4828,147.552 66,148.5C 65.2599,147.251 65.4265,146.251 66.5,145.5 Z"/></g>
<g><path style="opacity:0.004" fill="#060706" d="M 437.5,154.5 C 438.525,154.897 438.692,155.563 438,156.5C 437.536,155.906 437.369,155.239 437.5,154.5 Z"/></g>
<g><path style="opacity:1" fill="#2d2120" d="M 339.5,175.5 C 338.685,176.429 337.852,177.429 337,178.5C 336.833,178.167 336.667,177.833 336.5,177.5C 338.303,173.929 339.47,170.262 340,166.5C 338.289,168.956 336.956,171.623 336,174.5C 334.844,175.993 334.01,175.826 333.5,174C 335.265,168.738 336.932,163.571 338.5,158.5C 339.341,159.009 339.841,158.343 340,156.5C 339.947,158.936 340.113,161.269 340.5,163.5C 341.591,161.985 342.924,161.152 344.5,161C 343.289,162.113 343.289,163.28 344.5,164.5C 342.677,168.182 341.011,171.849 339.5,175.5 Z"/></g>
<g><path style="opacity:0.004" fill="#050605" d="M 70.5,166.5 C 71.8333,167.167 71.8333,167.167 70.5,166.5 Z"/></g>
<g><path style="opacity:1" fill="#302323" d="M 355.5,171.5 C 352.844,176.81 349.677,181.81 346,186.5C 345.308,185.975 344.808,185.308 344.5,184.5C 346.363,179.941 348.363,175.441 350.5,171C 349.767,168.28 348.767,165.78 347.5,163.5C 347.783,162.711 348.283,162.044 349,161.5C 349.29,163.044 349.956,164.377 351,165.5C 351.333,165.167 351.667,164.833 352,164.5C 352,166.5 352,168.5 352,170.5C 353,169.167 354,167.833 355,166.5C 354.524,168.32 354.691,169.987 355.5,171.5 Z"/></g>
<g><path style="opacity:0.004" fill="#060606" d="M 73.5,183.5 C 74.8333,184.167 74.8333,184.167 73.5,183.5 Z"/></g>
<g><path style="opacity:1" fill="#524343" d="M 320.5,190.5 C 321.097,190.735 321.43,191.235 321.5,192C 317.458,203.998 313.958,216.165 311,228.5C 312.589,215.477 315.756,202.81 320.5,190.5 Z"/></g>
<g><path style="opacity:1" fill="#5c5c5c" d="M 186.5,191.5 C 187.966,192.347 188.8,193.68 189,195.5C 193.112,209.151 196.779,222.818 200,236.5C 195.008,221.686 190.508,206.686 186.5,191.5 Z"/></g>
<g><path style="opacity:1" fill="#5b5b5b" d="M 183.5,218.5 C 180.036,215.538 176.703,212.371 173.5,209C 174.167,208.333 174.833,208.333 175.5,209C 178.777,211.766 181.443,214.933 183.5,218.5 Z"/></g>
<g><path style="opacity:0.004" fill="#060606" d="M 76.5,214.5 C 77.8333,215.167 77.8333,215.167 76.5,214.5 Z"/></g>
<g><path style="opacity:0.004" fill="#060606" d="M 79.5,221.5 C 80.525,221.897 80.6917,222.563 80,223.5C 79.5357,222.906 79.369,222.239 79.5,221.5 Z"/></g>
<g><path style="opacity:0.004" fill="#050605" d="M 82.5,228.5 C 83.8333,229.167 83.8333,229.167 82.5,228.5 Z"/></g>
<g><path style="opacity:0.004" fill="#050605" d="M 83.5,230.5 C 84.8333,231.167 84.8333,231.167 83.5,230.5 Z"/></g>
<g><path style="opacity:1" fill="#565657" d="M 183.5,218.5 C 189.805,224.786 194.305,232.119 197,240.5C 192.729,232.944 188.229,225.61 183.5,218.5 Z"/></g>
<g><path style="opacity:1" fill="#24262d" d="M 318.5,268.5 C 314.126,273.263 310.792,278.596 308.5,284.5C 305.737,293.98 303.237,303.646 301,313.5C 294.923,304.043 292.923,293.709 295,282.5C 295.511,280.122 296.178,277.788 297,275.5C 302.834,265.162 309.167,255.162 316,245.5C 319.722,241.901 323.556,238.401 327.5,235C 335.636,230.001 344.302,229.001 353.5,232C 351.941,232.98 350.274,233.813 348.5,234.5C 351.785,235.324 355.118,235.824 358.5,236C 354.759,236.919 351.092,237.919 347.5,239C 357.934,239.342 367.934,241.342 377.5,245C 369.978,245.952 362.978,248.285 356.5,252C 359.167,252.333 361.833,252.667 364.5,253C 348.644,252.703 333.977,256.703 320.5,265C 319.177,265.816 318.511,266.983 318.5,268.5 Z"/></g>
<g><path style="opacity:0.004" fill="#060606" d="M 84.5,233.5 C 85.8333,234.167 85.8333,234.167 84.5,233.5 Z"/></g>
<g><path style="opacity:1" fill="#24262d" d="M 181.5,229.5 C 185.968,234.139 190.301,238.972 194.5,244C 193.833,244.333 193.167,244.667 192.5,245C 195.901,248.639 198.068,252.805 199,257.5C 198.163,255.993 196.996,255.493 195.5,256C 201.973,262.473 208.473,268.973 215,275.5C 215.333,274.833 215.667,274.167 216,273.5C 217.559,277.725 220.392,280.559 224.5,282C 232.661,293.103 234.161,304.936 229,317.5C 225.551,307.935 221.551,298.601 217,289.5C 209.914,279.201 200.081,273.367 187.5,272C 178.246,270.354 168.912,269.354 159.5,269C 160.5,268.667 161.5,268.333 162.5,268C 151.634,265.928 140.8,266.094 130,268.5C 128.833,268.167 127.667,267.833 126.5,267.5C 128.68,263.601 132.013,261.435 136.5,261C 138.037,259.89 138.703,258.39 138.5,256.5C 140.06,256.481 141.56,256.148 143,255.5C 145.375,252.117 148.541,249.951 152.5,249C 151.672,248.085 150.672,247.419 149.5,247C 151.167,246.667 152.833,246.333 154.5,246C 153.833,245.333 153.167,244.667 152.5,244C 154.134,243.506 155.801,243.34 157.5,243.5C 157.5,242.5 157.5,241.5 157.5,240.5C 159.51,239.35 162.176,238.517 165.5,238C 162.955,235.499 163.455,234.999 167,236.5C 169.79,235.906 172.29,234.739 174.5,233C 174.167,232.667 173.833,232.333 173.5,232C 174.672,231.647 175.838,231.813 177,232.5C 178.011,232.108 178.511,231.441 178.5,230.5C 180.167,231.833 181.833,233.167 183.5,234.5C 183.833,234.333 184.167,234.167 184.5,234C 182.859,232.871 181.859,231.371 181.5,229.5 Z"/></g>
<g><path style="opacity:0.01" fill="#080808" d="M 511.5,254.5 C 511.5,255.167 511.5,255.833 511.5,256.5C 510.167,255.833 510.167,255.167 511.5,254.5 Z"/></g>
<g><path style="opacity:1" fill="#8d4432" d="M 356.5,264.5 C 352.399,263.209 348.399,263.209 344.5,264.5C 341.541,262.457 338.208,261.29 334.5,261C 341.08,259.073 347.746,259.073 354.5,261C 355.823,261.816 356.489,262.983 356.5,264.5 Z"/></g>
<g><path style="opacity:1" fill="#17181c" d="M 356.5,302.5 C 357.234,301.292 357.567,299.959 357.5,298.5C 356.127,298.657 354.793,298.49 353.5,298C 355.774,297.53 357.774,296.53 359.5,295C 361.473,294.505 363.473,294.338 365.5,294.5C 365.5,293.5 365.5,292.5 365.5,291.5C 361.661,291.388 361.661,290.721 365.5,289.5C 366.583,288.635 366.749,287.635 366,286.5C 363.901,285.869 362.068,284.869 360.5,283.5C 361.475,280.933 362.142,278.267 362.5,275.5C 363.005,270.433 363.839,265.433 365,260.5C 367.243,258.718 369.743,258.218 372.5,259C 371.167,259.667 369.833,260.333 368.5,261C 372.157,260.892 375.823,260.892 379.5,261C 378.377,262.044 377.044,262.71 375.5,263C 381.476,263.202 381.81,264.202 376.5,266C 378.167,266.333 379.833,266.667 381.5,267C 379.754,267.471 378.087,268.138 376.5,269C 379.486,268.872 382.486,268.872 385.5,269C 380.452,270.209 375.452,271.542 370.5,273C 375.465,272.409 380.465,272.076 385.5,272C 380.343,272.803 375.343,274.136 370.5,276C 374.167,275.667 377.833,275.333 381.5,275C 378.968,275.619 376.635,276.619 374.5,278C 375.167,278.167 375.833,278.333 376.5,278.5C 380.134,277.404 383.801,276.904 387.5,277C 384.216,278.125 380.883,279.125 377.5,280C 376.366,281.016 376.699,281.683 378.5,282C 375.5,283 372.5,284 369.5,285C 375.639,284.584 381.639,283.584 387.5,282C 384.326,283.725 380.993,285.058 377.5,286C 375.043,287.512 375.043,288.846 377.5,290C 372.833,292.333 368.167,294.667 363.5,297C 364.5,297.333 365.5,297.667 366.5,298C 363.037,299.232 359.703,300.732 356.5,302.5 Z"/></g>
<g><path style="opacity:1" fill="#e1833d" d="M 356.5,264.5 C 353.592,265.816 350.592,266.816 347.5,267.5C 346.167,266.833 345.167,265.833 344.5,264.5C 348.399,263.209 352.399,263.209 356.5,264.5 Z"/></g>
<g><path style="opacity:1" fill="#e7e7e7" d="M 330.5,268.5 C 337.363,268.474 339.363,271.307 336.5,277C 335.451,277.492 334.451,277.326 333.5,276.5C 332.571,277.689 332.238,279.022 332.5,280.5C 330.089,280.863 328.589,279.863 328,277.5C 326.927,273.9 327.76,270.9 330.5,268.5 Z"/></g>
<g><path style="opacity:1" fill="#884230" d="M 316.5,279.5 C 314.018,280.663 312.684,282.663 312.5,285.5C 311.5,285.5 310.5,285.5 309.5,285.5C 309.5,286.5 309.5,287.5 309.5,288.5C 308.566,287.432 308.232,286.099 308.5,284.5C 310.792,278.596 314.126,273.263 318.5,268.5C 319.363,267.537 320.03,267.537 320.5,268.5C 317.98,271.727 316.646,275.393 316.5,279.5 Z"/></g>
<g><path style="opacity:1" fill="#8f4532" d="M 184.5,280.5 C 180.539,279.481 176.539,279.814 172.5,281.5C 172.738,278.852 174.072,277.018 176.5,276C 181.833,275.333 187.167,275.333 192.5,276C 189.644,277.259 186.977,278.759 184.5,280.5 Z"/></g>
<g><path style="opacity:1" fill="#3a4a51" d="M 349.5,277.5 C 348.686,292.151 341.019,298.651 326.5,297C 322.53,294.869 319.863,291.702 318.5,287.5C 319.476,286.185 320.476,284.852 321.5,283.5C 332.331,294.194 340.331,292.36 345.5,278C 346.793,277.51 348.127,277.343 349.5,277.5 Z"/></g>
<g><path style="opacity:1" fill="#18191d" d="M 163.5,283.5 C 153.047,282.504 143.547,285.171 135,291.5C 130.904,296 130.904,300.667 135,305.5C 135.066,309.233 135.899,312.733 137.5,316C 140.167,316 142.833,316 145.5,316C 143.063,317.375 140.397,317.875 137.5,317.5C 137.5,318.833 137.5,320.167 137.5,321.5C 135.473,321.662 133.473,321.495 131.5,321C 132.167,320.667 132.833,320.333 133.5,320C 131.833,319.667 130.167,319.333 128.5,319C 127.167,318.333 127.167,317.667 128.5,317C 127.5,316.167 126.5,315.333 125.5,314.5C 126.902,313.158 126.569,312.324 124.5,312C 125.167,311.667 125.833,311.333 126.5,311C 122.622,310.051 122.622,308.885 126.5,307.5C 125.359,306.575 125.359,305.741 126.5,305C 124.833,304.667 123.167,304.333 121.5,304C 122.328,303.085 123.328,302.419 124.5,302C 123.5,301.667 122.5,301.333 121.5,301C 122.851,299.383 124.518,298.216 126.5,297.5C 125.624,296.749 124.624,296.249 123.5,296C 127.272,294.611 127.272,293.611 123.5,293C 126.986,290.739 130.652,288.739 134.5,287C 134.833,286 135.167,285 135.5,284C 143.086,280.137 151.086,278.803 159.5,280C 161.093,280.949 162.426,282.115 163.5,283.5 Z"/></g>
<g><path style="opacity:1" fill="#e8823d" d="M 184.5,280.5 C 183.974,282.23 182.974,283.564 181.5,284.5C 178.5,284.5 175.5,284.5 172.5,284.5C 172.5,283.5 172.5,282.5 172.5,281.5C 176.539,279.814 180.539,279.481 184.5,280.5 Z"/></g>
<g><path style="opacity:1" fill="#24272e" d="M 163.5,283.5 C 165.589,290.44 168.255,297.106 171.5,303.5C 176.763,311.971 184.429,316.638 194.5,317.5C 203.332,319.244 210.665,316.744 216.5,310C 217.5,309.333 218.5,309.333 219.5,310C 224.426,316.899 224.759,324.066 220.5,331.5C 219.998,334.02 220.665,336.354 222.5,338.5C 222.379,339.894 222.046,341.228 221.5,342.5C 223.839,343.418 225.339,345.084 226,347.5C 226.333,347.167 226.667,346.833 227,346.5C 228.115,348.908 229.782,350.908 232,352.5C 232.483,353.448 232.649,354.448 232.5,355.5C 234.694,357.9 236.361,360.566 237.5,363.5C 239.05,367.22 241.217,370.553 244,373.5C 248.669,377.003 252.836,381.003 256.5,385.5C 255.304,387.981 253.804,387.981 252,385.5C 250.649,387.01 248.982,388.01 247,388.5C 243.502,386.358 239.668,385.192 235.5,385C 236.376,383.414 237.376,381.914 238.5,380.5C 236.887,379.573 235.221,378.739 233.5,378C 227.536,377.927 221.702,377.094 216,375.5C 204.555,365.725 193.388,355.559 182.5,345C 172.728,342.742 163.728,338.742 155.5,333C 149.697,333.694 147.03,331.194 147.5,325.5C 144.927,325.852 142.594,325.352 140.5,324C 141.623,322.956 142.956,322.29 144.5,322C 142.19,321.503 139.857,321.337 137.5,321.5C 137.5,320.167 137.5,318.833 137.5,317.5C 140.397,317.875 143.063,317.375 145.5,316C 142.833,316 140.167,316 137.5,316C 135.899,312.733 135.066,309.233 135,305.5C 130.904,300.667 130.904,296 135,291.5C 143.547,285.171 153.047,282.504 163.5,283.5 Z"/></g>
<g><path style="opacity:1" fill="#e3813d" d="M 316.5,279.5 C 316.279,282.279 316.612,284.946 317.5,287.5C 315.11,288.891 313.443,290.891 312.5,293.5C 311.143,292.41 310.143,291.076 309.5,289.5C 309.5,289.167 309.5,288.833 309.5,288.5C 309.5,287.5 309.5,286.5 309.5,285.5C 310.5,285.5 311.5,285.5 312.5,285.5C 312.684,282.663 314.018,280.663 316.5,279.5 Z"/></g>
<g><path style="opacity:1" fill="#eaeaea" d="M 192.5,284.5 C 198.986,282.835 201.819,285.168 201,291.5C 199.413,292.727 198.079,292.394 197,290.5C 196.094,292.612 194.594,293.445 192.5,293C 191.214,290.168 191.214,287.335 192.5,284.5 Z"/></g>
<g><path style="opacity:1" fill="#f3bd45" d="M 171.5,284.5 C 171.833,284.5 172.167,284.5 172.5,284.5C 175.5,284.5 178.5,284.5 181.5,284.5C 181.5,285.5 181.5,286.5 181.5,287.5C 178.907,297.492 182.24,304.992 191.5,310C 201.878,311.819 208.211,307.653 210.5,297.5C 211.212,296.261 212.212,295.761 213.5,296C 213.989,298.209 214.989,300.042 216.5,301.5C 213.867,309.796 208.2,314.463 199.5,315.5C 180.419,314.082 171.086,303.748 171.5,284.5 Z"/></g>
<g><path style="opacity:1" fill="#eeba44" d="M 356.5,264.5 C 357.924,266.515 358.59,268.848 358.5,271.5C 357.096,293.404 345.429,303.904 323.5,303C 318.527,301.204 314.861,298.037 312.5,293.5C 313.443,290.891 315.11,288.891 317.5,287.5C 317.833,287.5 318.167,287.5 318.5,287.5C 319.863,291.702 322.53,294.869 326.5,297C 341.019,298.651 348.686,292.151 349.5,277.5C 349.69,273.968 349.023,270.635 347.5,267.5C 350.592,266.816 353.592,265.816 356.5,264.5 Z"/></g>
<g><path style="opacity:1" fill="#3c4b51" d="M 181.5,287.5 C 182.511,289.372 183.345,291.372 184,293.5C 187.473,295.89 190.639,298.723 193.5,302C 195.971,302.706 198.305,302.373 200.5,301C 202.24,298.965 204.074,297.131 206,295.5C 207.585,296.044 209.085,296.711 210.5,297.5C 208.211,307.653 201.878,311.819 191.5,310C 182.24,304.992 178.907,297.492 181.5,287.5 Z"/></g>
<g><path style="opacity:1" fill="#8e4932" d="M 216.5,301.5 C 214.989,300.042 213.989,298.209 213.5,296C 212.212,295.761 211.212,296.261 210.5,297.5C 211.632,290.266 209.299,284.432 203.5,280C 204.167,279.333 204.833,279.333 205.5,280C 209.182,283.403 212.682,286.903 216,290.5C 217.7,294.229 217.867,297.895 216.5,301.5 Z"/></g>
<g><path style="opacity:0.004" fill="#060706" d="M 87.5,293.5 C 88.525,293.897 88.6917,294.563 88,295.5C 87.5357,294.906 87.369,294.239 87.5,293.5 Z"/></g>
<g><path style="opacity:1" fill="#24262d" d="M 360.5,283.5 C 362.068,284.869 363.901,285.869 366,286.5C 366.749,287.635 366.583,288.635 365.5,289.5C 361.661,290.721 361.661,291.388 365.5,291.5C 365.5,292.5 365.5,293.5 365.5,294.5C 363.473,294.338 361.473,294.505 359.5,295C 357.774,296.53 355.774,297.53 353.5,298C 354.793,298.49 356.127,298.657 357.5,298.5C 357.567,299.959 357.234,301.292 356.5,302.5C 355.534,305.399 354.201,308.232 352.5,311C 349.833,311.667 347.167,312.333 344.5,313C 346.839,315.269 346.172,316.769 342.5,317.5C 342.709,318.086 343.043,318.586 343.5,319C 339.789,319.844 336.123,320.844 332.5,322C 334.608,322.36 336.608,323.027 338.5,324C 335.5,324.333 332.5,324.667 329.5,325C 334.509,326.219 334.176,327.053 328.5,327.5C 326.883,328.038 325.216,328.371 323.5,328.5C 323.297,330.39 323.963,331.89 325.5,333C 323.984,335.362 322.65,337.862 321.5,340.5C 323.001,343.484 324.001,346.651 324.5,350C 320.167,355 315.833,360 311.5,365C 306.211,368.62 301.211,372.62 296.5,377C 293.539,378.879 290.373,380.379 287,381.5C 285.97,381.164 285.47,380.497 285.5,379.5C 289.93,373.899 293.763,367.899 297,361.5C 302.439,358.061 306.439,353.395 309,347.5C 309.979,341.017 309.479,334.684 307.5,328.5C 308.758,329.016 309.758,328.35 310.5,326.5C 311.814,327.313 312.981,328.313 314,329.5C 313.993,326.137 312.827,323.137 310.5,320.5C 311.484,318.402 311.151,316.402 309.5,314.5C 309.667,314.167 309.833,313.833 310,313.5C 311,314.5 312,315.5 313,316.5C 313.167,316.167 313.333,315.833 313.5,315.5C 309.431,310.85 308.764,305.85 311.5,300.5C 327.719,310.244 342.219,307.911 355,293.5C 357.099,290.3 358.933,286.967 360.5,283.5 Z"/></g>
<g><path style="opacity:1" fill="#171412" d="M 362.5,275.5 C 362.142,278.267 361.475,280.933 360.5,283.5C 358.933,286.967 357.099,290.3 355,293.5C 342.219,307.911 327.719,310.244 311.5,300.5C 312.54,298.281 312.04,296.281 310,294.5C 309.506,292.866 309.34,291.199 309.5,289.5C 310.143,291.076 311.143,292.41 312.5,293.5C 314.861,298.037 318.527,301.204 323.5,303C 345.429,303.904 357.096,293.404 358.5,271.5C 359.947,267.487 359.613,263.487 357.5,259.5C 359.045,258.548 360.712,258.215 362.5,258.5C 361.289,264.31 361.289,269.977 362.5,275.5 Z"/></g>
<g><path style="opacity:0.004" fill="#050605" d="M 85.5,310.5 C 86.8333,311.167 86.8333,311.167 85.5,310.5 Z"/></g>
<g><path style="opacity:1" fill="#181514" d="M 171.5,284.5 C 171.086,303.748 180.419,314.082 199.5,315.5C 197.833,316.167 196.167,316.833 194.5,317.5C 184.429,316.638 176.763,311.971 171.5,303.5C 172.097,303.265 172.43,302.765 172.5,302C 168.847,293.892 166.514,285.392 165.5,276.5C 168.127,276.293 169.793,277.46 170.5,280C 169.438,283.789 169.271,287.623 170,291.5C 170.186,288.964 170.686,286.631 171.5,284.5 Z"/></g>
<g><path style="opacity:1" fill="#181a1e" d="M 137.5,321.5 C 139.857,321.337 142.19,321.503 144.5,322C 142.956,322.29 141.623,322.956 140.5,324C 142.594,325.352 144.927,325.852 147.5,325.5C 147.03,331.194 149.697,333.694 155.5,333C 163.728,338.742 172.728,342.742 182.5,345C 193.388,355.559 204.555,365.725 216,375.5C 221.702,377.094 227.536,377.927 233.5,378C 235.221,378.739 236.887,379.573 238.5,380.5C 237.376,381.914 236.376,383.414 235.5,385C 239.668,385.192 243.502,386.358 247,388.5C 248.982,388.01 250.649,387.01 252,385.5C 253.804,387.981 255.304,387.981 256.5,385.5C 260.172,390.799 264.338,395.799 269,400.5C 270.214,405.343 269.047,409.51 265.5,413C 259.186,418.445 252.186,419.778 244.5,417C 245.5,416 246.5,415 247.5,414C 246.833,413.833 246.167,413.667 245.5,413.5C 239.943,415.293 234.277,415.793 228.5,415C 227.347,413.117 225.681,412.284 223.5,412.5C 223.5,411.5 223.5,410.5 223.5,409.5C 218.422,410.918 213.755,410.084 209.5,407C 209.833,406.667 210.167,406.333 210.5,406C 207.833,405.667 205.167,405.333 202.5,405C 204.803,402.497 207.469,401.83 210.5,403C 212.957,401.488 212.957,400.154 210.5,399C 204.38,399.272 198.713,397.939 193.5,395C 192.663,393.989 192.33,392.822 192.5,391.5C 195.167,391.5 197.833,391.5 200.5,391.5C 200.67,390.178 200.337,389.011 199.5,388C 192.619,386.098 185.619,384.764 178.5,384C 180.087,383.138 181.754,382.471 183.5,382C 180.854,379.21 178.521,376.377 176.5,373.5C 169.802,374.452 163.135,375.285 156.5,376C 163.942,373.345 171.608,372.178 179.5,372.5C 179.5,370.833 179.5,369.167 179.5,367.5C 167.04,367.88 154.707,369.046 142.5,371C 153.65,368.112 164.984,366.279 176.5,365.5C 175.838,362.639 174.338,361.973 172,363.5C 170.775,363.138 169.609,362.638 168.5,362C 168.255,359.039 166.921,356.206 164.5,353.5C 161.49,352.164 158.49,350.831 155.5,349.5C 157.078,348.702 158.744,348.202 160.5,348C 157.968,347.381 155.635,346.381 153.5,345C 155.167,344.667 156.833,344.333 158.5,344C 154.211,342.346 149.878,340.679 145.5,339C 146.623,337.956 147.956,337.29 149.5,337C 145.383,337.064 141.717,335.897 138.5,333.5C 139.376,332.749 140.376,332.249 141.5,332C 139.913,331.138 138.246,330.471 136.5,330C 136.957,329.586 137.291,329.086 137.5,328.5C 134.553,327.679 131.553,327.179 128.5,327C 140.38,325.382 140.38,324.382 128.5,324C 131.992,324.07 134.992,323.237 137.5,321.5 Z"/></g>
<g><path style="opacity:1" fill="#24272e" d="M 274.5,326.5 C 282.979,333.779 285.479,342.779 282,353.5C 279.128,357.183 276.962,361.183 275.5,365.5C 270.528,366.422 265.528,366.588 260.5,366C 257.542,365.771 255.042,364.604 253,362.5C 249.398,355.421 248.732,348.088 251,340.5C 252.555,335.986 254.389,331.653 256.5,327.5C 259.373,325.323 262.706,324.323 266.5,324.5C 269.486,324.382 272.152,325.048 274.5,326.5 Z"/></g>
<g><path style="opacity:1" fill="#2b2a2a" d="M 355.5,350.5 C 365.217,350.176 374.884,350.676 384.5,352C 374.497,351.424 364.497,351.59 354.5,352.5C 352.5,352.333 350.5,352.167 348.5,352C 351.036,351.814 353.369,351.314 355.5,350.5 Z"/></g>
<g><path style="opacity:1" fill="#18191d" d="M 328.5,327.5 C 329.528,328.787 329.195,329.954 327.5,331C 327.833,332 328.167,333 328.5,334C 327.493,335.52 326.827,337.187 326.5,339C 328.02,342.219 329.02,345.386 329.5,348.5C 326.979,352.535 323.813,356.202 320,359.5C 317.617,363.105 315.117,366.605 312.5,370C 314.946,372.079 316.446,374.579 317,377.5C 313.172,378.991 310.006,381.325 307.5,384.5C 310.39,386.043 312.057,388.376 312.5,391.5C 311.5,391.5 310.5,391.5 309.5,391.5C 309.5,392.5 309.5,393.5 309.5,394.5C 308.325,394.281 307.325,394.614 306.5,395.5C 307.888,397.109 308.888,398.942 309.5,401C 308.923,405.171 308.256,409.338 307.5,413.5C 297.81,417.462 288.143,417.296 278.5,413C 273.544,410.254 271.377,406.087 272,400.5C 276.233,393.244 280.733,386.244 285.5,379.5C 285.47,380.497 285.97,381.164 287,381.5C 290.373,380.379 293.539,378.879 296.5,377C 301.211,372.62 306.211,368.62 311.5,365C 315.833,360 320.167,355 324.5,350C 324.001,346.651 323.001,343.484 321.5,340.5C 322.65,337.862 323.984,335.362 325.5,333C 323.963,331.89 323.297,330.39 323.5,328.5C 325.216,328.371 326.883,328.038 328.5,327.5 Z"/></g>
<g><path style="opacity:1" fill="#292727" d="M 350.5,357.5 C 358.541,357.336 366.541,357.836 374.5,359C 370.5,359.167 366.5,359.333 362.5,359.5C 358.107,359.491 354.107,358.824 350.5,357.5 Z"/></g>
<g><path style="opacity:1" fill="#18191d" d="M 274.5,326.5 C 281.986,328.481 287.153,333.148 290,340.5C 290.915,346.944 290.581,353.277 289,359.5C 288.094,357.388 286.594,356.555 284.5,357C 282.167,359.333 279.833,361.667 277.5,364C 280.974,364.301 284.308,365.134 287.5,366.5C 288.631,368.074 288.798,369.741 288,371.5C 278.437,373.073 274.103,378.74 275,388.5C 273.89,390.037 272.39,390.703 270.5,390.5C 269.833,373.167 269.167,373.167 268.5,390.5C 264.616,389.422 262.783,386.755 263,382.5C 259.807,376.815 254.974,374.482 248.5,375.5C 247.563,371.27 249.229,368.77 253.5,368C 251.189,368.155 248.856,368.155 246.5,368C 244.499,365.16 241.832,363.327 238.5,362.5C 237.893,362.624 237.56,362.957 237.5,363.5C 236.361,360.566 234.694,357.9 232.5,355.5C 235.345,357.023 238.345,358.023 241.5,358.5C 241.354,355.174 242.021,352.007 243.5,349C 242.574,345.861 242.408,342.694 243,339.5C 246.428,334.235 250.928,330.235 256.5,327.5C 254.389,331.653 252.555,335.986 251,340.5C 248.732,348.088 249.398,355.421 253,362.5C 255.042,364.604 257.542,365.771 260.5,366C 265.528,366.588 270.528,366.422 275.5,365.5C 276.962,361.183 279.128,357.183 282,353.5C 285.479,342.779 282.979,333.779 274.5,326.5 Z"/></g>
<g><path style="opacity:1" fill="#595959" d="M 364.5,368.5 C 364.917,367.876 365.584,367.543 366.5,367.5C 374.315,369.603 381.648,372.77 388.5,377C 380.685,373.939 372.685,371.106 364.5,368.5 Z"/></g>
<g><path style="opacity:1" fill="#363434" d="M 348.5,375.5 C 353.174,374.986 357.841,375.819 362.5,378C 357.826,377.502 353.16,376.669 348.5,375.5 Z"/></g>
<g><path style="opacity:1" fill="#363536" d="M 380.5,380.5 C 376.654,380.455 372.987,379.622 369.5,378C 373.44,377.886 377.107,378.72 380.5,380.5 Z"/></g>
<g><path style="opacity:1" fill="#323232" d="M 380.5,380.5 C 384.915,380.861 388.915,382.194 392.5,384.5C 388.216,383.739 384.216,382.405 380.5,380.5 Z"/></g>
<g><path style="opacity:1" fill="#303030" d="M 392.5,384.5 C 394.512,385.014 396.512,385.18 398.5,385C 394.866,380.804 395.532,380.471 400.5,384C 405,387.167 408.833,391 412,395.5C 412.982,396.759 413.315,398.092 413,399.5C 409.535,397.037 406.369,394.204 403.5,391C 399.77,388.807 396.103,386.64 392.5,384.5 Z"/></g>
<g><path style="opacity:1" fill="#252021" d="M 165.5,388.5 C 166.552,388.351 167.552,388.517 168.5,389C 157.752,393.76 148.085,400.094 139.5,408C 138.833,408.667 138.167,408.667 137.5,408C 140.206,405.629 142.539,402.963 144.5,400C 151.851,396.661 158.851,392.827 165.5,388.5 Z"/></g>
<g><path style="opacity:1" fill="#545252" d="M 344.5,391.5 C 357.904,394.868 370.237,401.035 381.5,410C 369.837,402.835 357.504,396.669 344.5,391.5 Z"/></g>
<g><path style="opacity:0.004" fill="#040504" d="M 417.5,403.5 C 418.833,404.167 418.833,404.167 417.5,403.5 Z"/></g>
<g><path style="opacity:0.004" fill="#050605" d="M 449.5,403.5 C 448.833,404.167 448.833,404.167 449.5,403.5 Z"/></g>
<g><path style="opacity:0.004" fill="#050605" d="M 424.5,406.5 C 423.833,407.167 423.833,407.167 424.5,406.5 Z"/></g>
<g><path style="opacity:0.004" fill="#050605" d="M 123.5,412.5 C 124.833,413.167 124.833,413.167 123.5,412.5 Z"/></g>
<g><path style="opacity:0.004" fill="#050605" d="M 455.5,414.5 C 454.833,413.167 454.833,413.167 455.5,414.5 Z"/></g>
<g><path style="opacity:0.004" fill="#060606" d="M 455.5,414.5 C 455.833,414.5 456.167,414.5 456.5,414.5C 456.315,415.17 455.981,415.17 455.5,414.5 Z"/></g>
<g><path style="opacity:1" fill="#151619" d="M 368.5,425.5 C 366.425,425.698 364.425,425.865 362.5,426C 354.284,416.579 344.95,408.579 334.5,402C 336.471,401.986 338.471,402.319 340.5,403C 348.677,408.589 356.677,414.422 364.5,420.5C 364.669,419.603 365.002,418.603 365.5,417.5C 367.912,418.577 370.246,419.744 372.5,421C 370.808,422.307 369.475,423.807 368.5,425.5 Z"/></g>
<g><path style="opacity:0.004" fill="#050605" d="M 384.5,419.5 C 385.833,420.167 385.833,420.167 384.5,419.5 Z"/></g>
<g><path style="opacity:0.004" fill="#050605" d="M 141.5,423.5 C 142.833,424.167 142.833,424.167 141.5,423.5 Z"/></g>
<g><path style="opacity:0.004" fill="#050605" d="M 143.5,424.5 C 144.833,425.167 144.833,425.167 143.5,424.5 Z"/></g>
<g><path style="opacity:1" fill="#17181c" d="M 342.5,439.5 C 325.976,454.763 306.643,464.763 284.5,469.5C 284.611,468.883 284.944,468.383 285.5,468C 298.276,465.694 309.943,460.86 320.5,453.5C 320.385,450.142 318.719,447.309 315.5,445C 314.258,444.689 313.258,445.189 312.5,446.5C 307.204,441.833 304.538,443.167 304.5,450.5C 303.197,447.563 301.53,444.897 299.5,442.5C 298.963,445.863 298.629,449.197 298.5,452.5C 295.481,448.647 291.981,445.313 288,442.5C 287.667,444.833 287.333,447.167 287,449.5C 285.219,441.711 283.219,441.711 281,449.5C 280.66,445.442 279.993,441.442 279,437.5C 278.246,440.639 277.246,443.639 276,446.5C 273.224,445.315 270.39,445.315 267.5,446.5C 265.792,446.297 264.459,445.464 263.5,444C 260.922,444.121 258.422,443.954 256,443.5C 252.588,445.298 249.088,446.632 245.5,447.5C 245.719,446.325 245.386,445.325 244.5,444.5C 238.947,448.384 232.947,451.384 226.5,453.5C 243.772,464.968 262.772,470.302 283.5,469.5C 273.546,471.05 263.546,470.55 253.5,468C 235.077,459.783 216.743,451.617 198.5,443.5C 195.597,441.352 192.264,439.852 188.5,439C 186.167,437.757 185.5,436.091 186.5,434C 190.21,434.314 193.876,434.147 197.5,433.5C 198.719,434.263 199.719,435.263 200.5,436.5C 202.5,434.833 204.5,433.167 206.5,431.5C 207.833,432.833 209.167,434.167 210.5,435.5C 212.382,434.907 214.215,434.24 216,433.5C 216.595,434.899 216.428,436.232 215.5,437.5C 216,437.833 216.5,438.167 217,438.5C 219.005,437.217 221.172,436.217 223.5,435.5C 224.192,436.025 224.692,436.692 225,437.5C 225.689,436.643 226.522,435.977 227.5,435.5C 227.5,436.5 227.5,437.5 227.5,438.5C 229.833,437.167 232.167,435.833 234.5,434.5C 235.711,435.274 235.711,436.107 234.5,437C 236.527,437.498 238.527,437.331 240.5,436.5C 241.672,436.919 242.672,437.585 243.5,438.5C 244.548,437.617 245.715,436.95 247,436.5C 247.667,437.167 248.333,437.833 249,438.5C 253.427,436.702 257.26,434.035 260.5,430.5C 260.833,430.667 261.167,430.833 261.5,431C 259.833,432.667 258.167,434.333 256.5,436C 259.978,435.839 263.144,434.672 266,432.5C 266.165,434.678 265.332,436.511 263.5,438C 263.833,438.167 264.167,438.333 264.5,438.5C 268.534,435.401 271.868,431.734 274.5,427.5C 275.347,429.872 276.681,431.872 278.5,433.5C 279.971,432.619 280.804,431.286 281,429.5C 282.667,431.167 284.333,432.833 286,434.5C 286.333,433.167 286.667,431.833 287,430.5C 289.039,432.874 291.372,434.874 294,436.5C 294,434.5 294,432.5 294,430.5C 296.644,432.31 299.144,434.31 301.5,436.5C 301.833,436.167 302.167,435.833 302.5,435.5C 301.452,433.544 300.952,431.544 301,429.5C 303.779,432.297 306.946,434.13 310.5,435C 307.921,432.562 308.587,431.062 312.5,430.5C 314.331,431.929 316.331,432.429 318.5,432C 317.672,431.085 316.672,430.419 315.5,430C 316.108,429.13 316.941,428.63 318,428.5C 324.827,432.111 331.994,434.944 339.5,437C 340.691,437.698 341.691,438.531 342.5,439.5 Z"/></g>
<g><path style="opacity:0.004" fill="#060606" d="M 109.5,430.5 C 106.999,430.489 106.832,429.822 109,428.5C 109.464,429.094 109.631,429.761 109.5,430.5 Z"/></g>
<g><path style="opacity:0.004" fill="#060606" d="M 114.5,430.5 C 116.793,431.301 116.46,431.968 113.5,432.5C 113.5,432.167 113.5,431.833 113.5,431.5C 114.167,431.5 114.5,431.167 114.5,430.5 Z"/></g>
<g><path style="opacity:0.004" fill="#050605" d="M 112.5,432.5 C 112.833,432.5 113.167,432.5 113.5,432.5C 113.315,433.17 112.981,433.17 112.5,432.5 Z"/></g>
<g><path style="opacity:0.004" fill="#060606" d="M 147.5,432.5 C 148.713,433.497 148.546,434.497 147,435.5C 146.536,434.906 146.369,434.239 146.5,433.5C 147.167,433.5 147.5,433.167 147.5,432.5 Z"/></g>
<g><path style="opacity:0.004" fill="#050605" d="M 111.5,433.5 C 111.833,433.5 112.167,433.5 112.5,433.5C 112.315,434.17 111.981,434.17 111.5,433.5 Z"/></g>
<g><path style="opacity:0.004" fill="#060706" d="M 178.5,437.5 C 177.833,438.167 177.833,438.167 178.5,437.5 Z"/></g>
<g><path style="opacity:0.004" fill="#060706" d="M 140.5,443.5 C 141.525,443.897 141.692,444.563 141,445.5C 140.536,444.906 140.369,444.239 140.5,443.5 Z"/></g>
<g><path style="opacity:1" fill="#24272e" d="M 284.5,469.5 C 284.167,469.5 283.833,469.5 283.5,469.5C 262.772,470.302 243.772,464.968 226.5,453.5C 232.947,451.384 238.947,448.384 244.5,444.5C 245.386,445.325 245.719,446.325 245.5,447.5C 249.088,446.632 252.588,445.298 256,443.5C 258.422,443.954 260.922,444.121 263.5,444C 264.459,445.464 265.792,446.297 267.5,446.5C 270.39,445.315 273.224,445.315 276,446.5C 277.246,443.639 278.246,440.639 279,437.5C 279.993,441.442 280.66,445.442 281,449.5C 283.219,441.711 285.219,441.711 287,449.5C 287.333,447.167 287.667,444.833 288,442.5C 291.981,445.313 295.481,448.647 298.5,452.5C 298.629,449.197 298.963,445.863 299.5,442.5C 301.53,444.897 303.197,447.563 304.5,450.5C 304.538,443.167 307.204,441.833 312.5,446.5C 313.258,445.189 314.258,444.689 315.5,445C 318.719,447.309 320.385,450.142 320.5,453.5C 309.943,460.86 298.276,465.694 285.5,468C 284.944,468.383 284.611,468.883 284.5,469.5 Z"/></g>
<g><path style="opacity:0.004" fill="#060706" d="M 201.5,446.5 C 202.833,447.167 202.833,447.167 201.5,446.5 Z"/></g>
<g><path style="opacity:0.008" fill="#080908" d="M 254.5,511.5 C 255.167,510.167 255.833,510.167 256.5,511.5C 255.833,511.5 255.167,511.5 254.5,511.5 Z"/></g>
<g><path style="opacity:0.012" fill="#080908" d="M 511.5,510.5 C 511.5,510.833 511.5,511.167 511.5,511.5C 510.83,511.019 510.83,510.685 511.5,510.5 Z"/></g>
</svg>
