<svg xmlns="http://www.w3.org/2000/svg" version="1.1" xmlns:xlink="http://www.w3.org/1999/xlink" xmlns:svgjs="http://svgjs.dev/svgjs" width="2000" height="2176" viewBox="0 0 2000 2176"><g transform="matrix(1,0,0,1,0.19247717632731565,0.8809716599189414)"><svg viewBox="0 0 227 247" data-background-color="#ffffff" preserveAspectRatio="xMidYMid meet" height="2176" width="2000" xmlns="http://www.w3.org/2000/svg" xmlns:xlink="http://www.w3.org/1999/xlink"><g id="tight-bounds" transform="matrix(1,0,0,1,-0.021846148179093916,-0.09999999999999432)"><svg viewBox="0 0 227.0436923076923 247.2" height="247.2" width="227.0436923076923"><g><svg viewBox="0 0 227.0436923076923 247.2" height="247.2" width="227.0436923076923"><g><svg viewBox="0 0 227.0436923076923 247.2" height="247.2" width="227.0436923076923"><g id="textblocktransform"><svg viewBox="0 0 227.0436923076923 247.2" height="247.2" width="227.0436923076923" id="textblock"><g><svg viewBox="0 0 227.0436923076923 247.2" height="247.2" width="227.0436923076923"><g transform="matrix(1,0,0,1,0,0)"><svg width="227.0436923076923" viewBox="0.10000000149011612 -32.5 29.850000381469727 32.5" height="247.2" data-palette-color="#755bb4"><path d="M12.85 0L4.15 0 0.1-32.5 8.9-32.5 9.3-16.4 9.3-8 9.5-8Q9.8-10.1 10.25-12.2 10.7-14.3 11.1-16.4L11.1-16.4 12.9-24.3 17.9-24.3 19.55-16.4Q19.9-14.4 20.35-12.3 20.8-10.2 21.15-8L21.15-8 21.35-8 21.35-16.4 21.75-32.5 29.95-32.5 26.2 0 17.3 0 15.85-8.9Q15.6-10.5 15.38-12.15 15.15-13.8 15.1-15.25L15.1-15.25 14.95-15.25Q14.85-13.8 14.65-12.15 14.45-10.5 14.2-8.9L14.2-8.9 12.85 0Z" opacity="1" transform="matrix(1,0,0,1,0,0)" fill="#755bb4" class="wordmark-text-0" data-fill-palette-color="primary" id="text-0"></path></svg></g></svg></g></svg></g></svg></g></svg></g><defs></defs></svg><rect width="227.0436923076923" height="247.2" fill="none" stroke="none" visibility="hidden"></rect></g></svg></g></svg>