<svg xmlns="http://www.w3.org/2000/svg" version="1.1" xmlns:xlink="http://www.w3.org/1999/xlink" xmlns:svgjs="http://svgjs.dev/svgjs" width="2000" height="1247" viewBox="0 0 2000 1247"><g transform="matrix(1,0,0,1,-1.2121212121212466,0.504858299595071)"><svg viewBox="0 0 396 247" data-background-color="#ffffff" preserveAspectRatio="xMidYMid meet" height="1247" width="2000" xmlns="http://www.w3.org/2000/svg" xmlns:xlink="http://www.w3.org/1999/xlink"><g id="tight-bounds" transform="matrix(1,0,0,1,0.2400000000000091,-0.09999999999999432)"><svg viewBox="0 0 395.52 247.2" height="247.2" width="395.52"><g><svg></svg></g><g><svg viewBox="0 0 395.52 247.2" height="247.2" width="395.52"><g transform="matrix(1,0,0,1,75.54432000000001,93.45590849928988)"><svg viewBox="0 0 244.43135999999996 60.28818300142022" height="60.28818300142022" width="244.43135999999996"><g><svg viewBox="0 0 244.43135999999996 60.28818300142022" height="60.28818300142022" width="244.43135999999996"><g><svg viewBox="0 0 244.43135999999996 60.28818300142022" height="60.28818300142022" width="244.43135999999996"><g><svg viewBox="0 0 244.43135999999996 60.28818300142022" height="60.28818300142022" width="244.43135999999996"><g id="textblocktransform"><svg viewBox="0 0 244.43135999999996 60.28818300142022" height="60.28818300142022" width="244.43135999999996" id="textblock"><g><svg viewBox="0 0 244.43135999999996 60.28818300142022" height="60.28818300142022" width="244.43135999999996"><g transform="matrix(1,0,0,1,0,0)"><svg width="244.43135999999996" viewBox="0.49000000953674316 -38.15999984741211 154.70999145507812 38.15999984741211" height="60.28818300142022" data-palette-color="#8b3c7f"><path d="M17.33 0L0.49-38.16 8.94-38.16 19.29-13.53 21.68-7.57 23.56-13.53 27.37-22.51 20.51-38.16 28.47-38.16 31.27-30.71 33.89-38.16 41.85-38.16 34.99-22.51 38.87-13.33 41.21-7.57 43.02-13.43 53.42-38.16 61.87-38.16 45.02 0 37.35 0 33.96-7.57 31.2-14.92 28.44-7.57 25 0 17.33 0ZM67.8 0L67.8-38.16 75.53-38.16 89.4-24.24 103.27-38.16 111.01-38.16 111.01 0 103.27 0 103.27-27.44 89.4-14.09 75.53-27.44 75.53 0 67.8 0ZM133.37 0L133.37-31.37 119.28-31.37 119.28-38.16 155.2-38.16 155.2-31.37 141.11-31.37 141.11 0 133.37 0Z" opacity="1" transform="matrix(1,0,0,1,0,0)" fill="#8b3c7f" class="wordmark-text-0" data-fill-palette-color="primary" id="text-0"></path></svg></g></svg></g></svg></g></svg></g></svg></g></svg></g></svg></g><path d="M198.78 87.456L198.78 28.785 9.151 28.785 9.151 218.415 198.78 218.415 198.78 159.744 193.344 159.744 193.344 212.978 14.588 212.978 14.588 34.222 193.344 34.222 193.344 87.456Z" fill="#8b3c7f" stroke="transparent" data-fill-palette-color="primary"></path></svg></g><defs></defs></svg><rect width="395.52" height="247.2" fill="none" stroke="none" visibility="hidden"></rect></g></svg></g></svg>